<?xml version="1.0" encoding="UTF-8"?>
<svg id="uuid-7bdca018-e067-40f2-bc40-a53c614a5de1" data-name="Layer 1" xmlns="http://www.w3.org/2000/svg" viewBox="0 0 144 144">
  <g>
    <path d="m34.05,24.74l-.15-4.37c-1.77,1.31-3.48,2.71-5.1,4.19l4.26,1c.33-.28.67-.55,1-.82Z" fill="#fff" stroke="#fff" stroke-miterlimit="10"/>
    <path d="m44,18.23l.71-4.33c-2.01.95-3.96,1.99-5.85,3.13l3.98,1.81c.38-.21.77-.41,1.16-.61Z" fill="#fff" stroke="#fff" stroke-miterlimit="10"/>
    <path d="m55.03,13.8l1.55-4.12c-2.17.54-4.29,1.18-6.36,1.93l3.56,2.56c.41-.13.83-.24,1.25-.37Z" fill="#fff" stroke="#fff" stroke-miterlimit="10"/>
    <path d="m78.58,11.74l3.02-3.23c-2.17-.33-4.39-.54-6.63-.65l2.33,3.76c.43.04.86.07,1.28.12Z" fill="#fff" stroke="#fff" stroke-miterlimit="10"/>
    <path d="m66.7,11.62l2.33-3.76c-2.24.1-4.45.32-6.63.65l3.02,3.23c.43-.05.86-.08,1.28-.12Z" fill="#fff" stroke="#fff" stroke-miterlimit="10"/>
    <path d="m18.85,42.84l-1.81-3.98c-1.14,1.89-2.18,3.84-3.13,5.85l4.33-.71c.2-.39.4-.78.61-1.16Z" fill="#fff" stroke="#fff" stroke-miterlimit="10"/>
    <path d="m11.74,65.42l-3.23-3.02c-.33,2.17-.54,4.39-.65,6.63l3.76-2.33c.04-.43.07-.86.12-1.28Z" fill="#fff" stroke="#fff" stroke-miterlimit="10"/>
    <path d="m11.62,77.3l-3.76-2.33c.1,2.24.32,4.45.65,6.63l3.23-3.02c-.05-.43-.08-.86-.12-1.28Z" fill="#fff" stroke="#fff" stroke-miterlimit="10"/>
    <path d="m25.56,33.05l-1-4.26c-1.48,1.63-2.88,3.33-4.19,5.1l4.37.15c.27-.34.54-.67.82-1Z" fill="#fff" stroke="#fff" stroke-miterlimit="10"/>
    <path d="m90.22,14.17l3.56-2.56c-2.07-.75-4.2-1.39-6.36-1.93l1.54,4.12c.42.12.84.24,1.25.37Z" fill="#fff" stroke="#fff" stroke-miterlimit="10"/>
    <path d="m14.17,53.78l-2.56-3.56c-.75,2.07-1.39,4.2-1.93,6.36l4.12-1.55c.12-.42.24-.84.37-1.25Z" fill="#fff" stroke="#fff" stroke-miterlimit="10"/>
    <path d="m132.38,66.7l3.76,2.33c-.1-2.24-.32-4.45-.65-6.63l-3.23,3.02c.05.43.08.85.12,1.28Z" fill="#fff" stroke="#fff" stroke-miterlimit="10"/>
    <path d="m132.26,78.58l3.23,3.02c.33-2.17.54-4.39.65-6.63l-3.76,2.33c-.04.43-.07.86-.12,1.28Z" fill="#fff" stroke="#fff" stroke-miterlimit="10"/>
    <path d="m101.16,18.85l3.98-1.81c-1.89-1.14-3.84-2.18-5.84-3.13l.71,4.33c.39.2.78.4,1.16.61Z" fill="#fff" stroke="#fff" stroke-miterlimit="10"/>
    <path d="m110.95,25.56l4.25-1c-1.62-1.48-3.33-2.88-5.1-4.19l-.15,4.37c.34.27.67.54,1,.82Z" fill="#fff" stroke="#fff" stroke-miterlimit="10"/>
    <path d="m130.2,55.03l4.12,1.54c-.54-2.16-1.18-4.29-1.93-6.36l-2.56,3.56c.13.41.24.83.37,1.25Z" fill="#fff" stroke="#fff" stroke-miterlimit="10"/>
    <path d="m119.26,34.05l4.37-.15c-1.31-1.77-2.71-3.47-4.19-5.1l-1,4.25c.28.33.55.67.82,1Z" fill="#fff" stroke="#fff" stroke-miterlimit="10"/>
    <path d="m125.77,44l4.33.71c-.95-2.01-1.99-3.96-3.13-5.84l-1.81,3.98c.21.38.41.77.61,1.16Z" fill="#fff" stroke="#fff" stroke-miterlimit="10"/>
    <path d="m65.42,132.26l-3.02,3.23c2.17.33,4.39.54,6.63.65l-2.33-3.76c-.43-.04-.86-.07-1.28-.12Z" fill="#fff" stroke="#fff" stroke-miterlimit="10"/>
    <path d="m42.84,125.15l-3.98,1.81c1.89,1.14,3.84,2.18,5.84,3.13l-.71-4.33c-.39-.2-.78-.4-1.16-.61Z" fill="#fff" stroke="#fff" stroke-miterlimit="10"/>
    <path d="m130.2,88.97c-.12.42-.24.84-.37,1.25l2.56,3.56c.75-2.07,1.39-4.2,1.93-6.36l-4.12,1.54Z" fill="#fff" stroke="#fff" stroke-miterlimit="10"/>
    <path d="m125.15,101.16l1.81,3.98c1.14-1.89,2.18-3.84,3.13-5.84l-4.33.71c-.2.39-.4.78-.61,1.16Z" fill="#fff" stroke="#fff" stroke-miterlimit="10"/>
    <path d="m24.74,109.95l-4.37.15c1.31,1.77,2.71,3.47,4.19,5.1l1-4.25c-.28-.33-.55-.67-.82-1Z" fill="#fff" stroke="#fff" stroke-miterlimit="10"/>
    <path d="m33.05,118.44l-4.25,1c1.62,1.48,3.33,2.88,5.1,4.19l.15-4.37c-.34-.27-.67-.54-1-.82Z" fill="#fff" stroke="#fff" stroke-miterlimit="10"/>
    <path d="m100,125.77l-.71,4.33c2.01-.95,3.96-1.99,5.84-3.13l-3.98-1.81c-.38.21-.77.41-1.16.61Z" fill="#fff" stroke="#fff" stroke-miterlimit="10"/>
    <path d="m88.97,130.2l-1.54,4.12c2.16-.54,4.29-1.18,6.36-1.93l-3.56-2.56c-.41.13-.83.24-1.25.37Z" fill="#fff" stroke="#fff" stroke-miterlimit="10"/>
    <path d="m77.3,132.38l-2.33,3.76c2.24-.1,4.45-.32,6.63-.65l-3.02-3.23c-.43.05-.86.08-1.28.12Z" fill="#fff" stroke="#fff" stroke-miterlimit="10"/>
    <path d="m118.44,110.95l1,4.25c1.48-1.62,2.88-3.33,4.19-5.1l-4.37-.15c-.27.34-.54.67-.82,1Z" fill="#fff" stroke="#fff" stroke-miterlimit="10"/>
    <path d="m18.23,100l-4.33-.71c.95,2.01,1.99,3.96,3.13,5.84l1.81-3.98c-.21-.38-.41-.77-.61-1.16Z" fill="#fff" stroke="#fff" stroke-miterlimit="10"/>
    <path d="m13.8,88.97l-4.12-1.54c.54,2.16,1.18,4.29,1.93,6.36l2.56-3.56c-.13-.41-.24-.83-.37-1.25Z" fill="#fff" stroke="#fff" stroke-miterlimit="10"/>
    <path d="m53.78,129.83l-3.56,2.56c2.07.75,4.2,1.39,6.36,1.93l-1.54-4.12c-.42-.12-.84-.24-1.25-.37Z" fill="#fff" stroke="#fff" stroke-miterlimit="10"/>
    <path d="m109.95,119.26l.15,4.37c1.77-1.31,3.47-2.71,5.1-4.19l-4.25-1c-.33.28-.67.55-1,.82Z" fill="#fff" stroke="#fff" stroke-miterlimit="10"/>
    <path d="m58.55,139.6l3.85-4.12c-1.97-.3-3.92-.69-5.83-1.17l1.98,5.28Z" fill="#fff" stroke="#fff" stroke-linecap="round" stroke-linejoin="round" stroke-width="3"/>
    <path d="m139.61,85.45l-4.12-3.85c-.3,1.97-.69,3.92-1.17,5.83l5.28-1.98Z" fill="#fff" stroke="#fff" stroke-linecap="round" stroke-linejoin="round" stroke-width="3"/>
    <path d="m45.62,135.69l4.59-3.3c-1.88-.68-3.71-1.45-5.51-2.3l.91,5.6Z" fill="#fff" stroke="#fff" stroke-linecap="round" stroke-linejoin="round" stroke-width="3"/>
    <path d="m69.03,136.13l2.97,4.8,2.97-4.8c-.99.05-1.98.08-2.97.08s-1.99-.03-2.97-.08Z" fill="#fff" stroke="#fff" stroke-linecap="round" stroke-linejoin="round" stroke-width="3"/>
    <path d="m119.44,28.8l1.31-5.55-5.55,1.31c1.48,1.35,2.89,2.76,4.24,4.24Z" fill="#fff" stroke="#fff" stroke-linecap="round" stroke-linejoin="round" stroke-width="3"/>
    <path d="m129.32,110.31l-2.36-5.17c-1.04,1.71-2.15,3.37-3.34,4.97l5.69.2Z" fill="#fff" stroke="#fff" stroke-linecap="round" stroke-linejoin="round" stroke-width="3"/>
    <path d="m115.2,119.44l5.55,1.31-1.31-5.55c-1.35,1.48-2.76,2.89-4.24,4.24Z" fill="#fff" stroke="#fff" stroke-linecap="round" stroke-linejoin="round" stroke-width="3"/>
    <path d="m136.13,74.97l4.8-2.97-4.8-2.97c.05.99.08,1.98.08,2.97s-.03,1.99-.08,2.97Z" fill="#fff" stroke="#fff" stroke-linecap="round" stroke-linejoin="round" stroke-width="3"/>
    <path d="m110.31,129.32l-.2-5.69c-1.6,1.19-3.26,2.3-4.97,3.34l5.17,2.36Z" fill="#fff" stroke="#fff" stroke-linecap="round" stroke-linejoin="round" stroke-width="3"/>
    <path d="m135.69,98.38l-3.3-4.59c-.68,1.88-1.45,3.71-2.3,5.51l5.6-.91Z" fill="#fff" stroke="#fff" stroke-linecap="round" stroke-linejoin="round" stroke-width="3"/>
    <path d="m85.45,139.6l1.98-5.28c-1.91.47-3.85.87-5.83,1.17l3.85,4.12Z" fill="#fff" stroke="#fff" stroke-linecap="round" stroke-linejoin="round" stroke-width="3"/>
    <path d="m98.38,135.69l.91-5.6c-1.79.85-3.63,1.62-5.51,2.3l4.59,3.3Z" fill="#fff" stroke="#fff" stroke-linecap="round" stroke-linejoin="round" stroke-width="3"/>
    <path d="m8.31,45.62l3.3,4.59c.68-1.88,1.45-3.71,2.29-5.5l-5.59.91Z" fill="#fff" stroke="#fff" stroke-linecap="round" stroke-linejoin="round" stroke-width="3"/>
    <path d="m58.55,4.39l-1.98,5.28c1.91-.47,3.85-.87,5.83-1.17l-3.85-4.12Z" fill="#fff" stroke="#fff" stroke-linecap="round" stroke-linejoin="round" stroke-width="3"/>
    <path d="m24.56,115.2l-1.31,5.55,5.55-1.31c-1.48-1.35-2.89-2.76-4.24-4.24Z" fill="#fff" stroke="#fff" stroke-linecap="round" stroke-linejoin="round" stroke-width="3"/>
    <path d="m85.45,4.39l-3.85,4.12c1.97.3,3.92.69,5.83,1.17l-1.98-5.28Z" fill="#fff" stroke="#fff" stroke-linecap="round" stroke-linejoin="round" stroke-width="3"/>
    <path d="m33.69,129.32l5.17-2.36c-1.71-1.04-3.37-2.15-4.97-3.34l-.2,5.69Z" fill="#fff" stroke="#fff" stroke-linecap="round" stroke-linejoin="round" stroke-width="3"/>
    <path d="m8.31,98.38l5.6.91c-.85-1.79-1.62-3.63-2.3-5.51l-3.3,4.59Z" fill="#fff" stroke="#fff" stroke-linecap="round" stroke-linejoin="round" stroke-width="3"/>
    <path d="m98.38,8.31l-4.59,3.3c1.88.68,3.71,1.45,5.51,2.3l-.91-5.6Z" fill="#fff" stroke="#fff" stroke-linecap="round" stroke-linejoin="round" stroke-width="3"/>
    <path d="m45.62,8.31l-.91,5.59c1.79-.85,3.63-1.61,5.5-2.29l-4.59-3.3Z" fill="#fff" stroke="#fff" stroke-linecap="round" stroke-linejoin="round" stroke-width="3"/>
    <path d="m7.87,69.03l-4.8,2.97,4.8,2.97c-.05-.99-.08-1.98-.08-2.97s.03-1.99.08-2.97Z" fill="#fff" stroke="#fff" stroke-linecap="round" stroke-linejoin="round" stroke-width="3"/>
    <path d="m4.4,58.55l4.12,3.85c.3-1.97.69-3.92,1.17-5.83l-5.28,1.98Z" fill="#fff" stroke="#fff" stroke-linecap="round" stroke-linejoin="round" stroke-width="3"/>
    <path d="m14.68,33.69l2.35,5.17c1.03-1.71,2.15-3.36,3.33-4.96l-5.69-.2Z" fill="#fff" stroke="#fff" stroke-linecap="round" stroke-linejoin="round" stroke-width="3"/>
    <path d="m110.31,14.68l-5.17,2.36c1.71,1.04,3.37,2.15,4.97,3.34l.2-5.69Z" fill="#fff" stroke="#fff" stroke-linecap="round" stroke-linejoin="round" stroke-width="3"/>
    <path d="m4.4,85.45l5.28,1.98c-.47-1.91-.87-3.85-1.17-5.83l-4.12,3.85Z" fill="#fff" stroke="#fff" stroke-linecap="round" stroke-linejoin="round" stroke-width="3"/>
    <path d="m33.69,14.68l.2,5.69c1.6-1.18,3.25-2.3,4.96-3.33l-5.16-2.35Z" fill="#fff" stroke="#fff" stroke-linecap="round" stroke-linejoin="round" stroke-width="3"/>
    <path d="m28.79,24.55l-5.54-1.31,1.31,5.54c1.35-1.48,2.76-2.89,4.24-4.24Z" fill="#fff" stroke="#fff" stroke-linecap="round" stroke-linejoin="round" stroke-width="3"/>
    <path d="m14.68,110.31l5.69-.2c-1.19-1.6-2.3-3.26-3.34-4.97l-2.36,5.17Z" fill="#fff" stroke="#fff" stroke-linecap="round" stroke-linejoin="round" stroke-width="3"/>
    <path d="m74.97,7.87l-2.97-4.8-2.97,4.8c.99-.05,1.98-.08,2.97-.08s1.99.03,2.97.08Z" fill="#fff" stroke="#fff" stroke-linecap="round" stroke-linejoin="round" stroke-width="3"/>
    <path d="m139.61,58.55l-5.28-1.98c.47,1.91.87,3.85,1.17,5.83l4.12-3.85Z" fill="#fff" stroke="#fff" stroke-linecap="round" stroke-linejoin="round" stroke-width="3"/>
    <path d="m135.69,45.62l-5.6-.91c.85,1.79,1.62,3.63,2.3,5.51l3.3-4.59Z" fill="#fff" stroke="#fff" stroke-linecap="round" stroke-linejoin="round" stroke-width="3"/>
    <path d="m129.32,33.69l-5.69.2c1.19,1.6,2.3,3.26,3.34,4.97l2.36-5.17Z" fill="#fff" stroke="#fff" stroke-linecap="round" stroke-linejoin="round" stroke-width="3"/>
    <path d="m24.74,109.95c.27.34.54.67.82,1l.24-1.04-1.06.04Z" fill="#fff" stroke="#fff" stroke-linecap="round" stroke-linejoin="round" stroke-width="3"/>
    <path d="m18.85,42.84c-.21.38-.41.77-.61,1.16l1.06-.17-.45-.99Z" fill="#fff" stroke="#fff" stroke-linecap="round" stroke-linejoin="round" stroke-width="3"/>
    <path d="m33.05,118.44c.33.28.67.55,1,.82l.04-1.06-1.04.24Z" fill="#fff" stroke="#fff" stroke-linecap="round" stroke-linejoin="round" stroke-width="3"/>
    <path d="m18.23,100c.2.39.4.78.61,1.16l.45-.99-1.06-.17Z" fill="#fff" stroke="#fff" stroke-linecap="round" stroke-linejoin="round" stroke-width="3"/>
    <path d="m11.74,65.42c-.05.43-.08.86-.12,1.28l.9-.56-.78-.73Z" fill="#fff" stroke="#fff" stroke-linecap="round" stroke-linejoin="round" stroke-width="3"/>
    <path d="m11.62,77.3c.04.43.07.86.12,1.28l.78-.73-.9-.56Z" fill="#fff" stroke="#fff" stroke-linecap="round" stroke-linejoin="round" stroke-width="3"/>
    <path d="m25.56,33.05c-.28.33-.55.67-.82,1l1.06.04-.24-1.04Z" fill="#fff" stroke="#fff" stroke-linecap="round" stroke-linejoin="round" stroke-width="3"/>
    <path d="m13.8,88.97c.12.42.24.84.37,1.25l.63-.88-1-.37Z" fill="#fff" stroke="#fff" stroke-linecap="round" stroke-linejoin="round" stroke-width="3"/>
    <path d="m14.17,53.78c-.13.41-.24.83-.37,1.25l1-.37-.63-.88Z" fill="#fff" stroke="#fff" stroke-linecap="round" stroke-linejoin="round" stroke-width="3"/>
    <path d="m78.58,11.74c-.43-.05-.85-.08-1.28-.12l.56.9.73-.78Z" fill="#fff" stroke="#fff" stroke-linecap="round" stroke-linejoin="round" stroke-width="3"/>
    <path d="m130.2,55.03c-.12-.42-.24-.84-.37-1.25l-.63.88,1,.37Z" fill="#fff" stroke="#fff" stroke-linecap="round" stroke-linejoin="round" stroke-width="3"/>
    <path d="m119.26,34.05c-.27-.34-.54-.67-.82-1l-.24,1.04,1.06-.04Z" fill="#fff" stroke="#fff" stroke-linecap="round" stroke-linejoin="round" stroke-width="3"/>
    <path d="m42.84,125.15c.38.21.77.41,1.16.61l-.17-1.06-.99.45Z" fill="#fff" stroke="#fff" stroke-linecap="round" stroke-linejoin="round" stroke-width="3"/>
    <path d="m125.77,44c-.2-.39-.4-.78-.61-1.16l-.45.99,1.06.17Z" fill="#fff" stroke="#fff" stroke-linecap="round" stroke-linejoin="round" stroke-width="3"/>
    <path d="m132.38,66.7c-.04-.43-.07-.86-.12-1.28l-.78.73.9.56Z" fill="#fff" stroke="#fff" stroke-linecap="round" stroke-linejoin="round" stroke-width="3"/>
    <path d="m132.26,78.58c.05-.43.08-.85.12-1.28l-.9.56.78.73Z" fill="#fff" stroke="#fff" stroke-linecap="round" stroke-linejoin="round" stroke-width="3"/>
    <path d="m90.22,14.17c-.41-.13-.83-.24-1.25-.37l.37,1,.88-.63Z" fill="#fff" stroke="#fff" stroke-linecap="round" stroke-linejoin="round" stroke-width="3"/>
    <path d="m55.03,13.8c-.42.12-.84.24-1.25.37l.88.63.37-1Z" fill="#fff" stroke="#fff" stroke-linecap="round" stroke-linejoin="round" stroke-width="3"/>
    <path d="m44,18.23c-.39.2-.78.4-1.16.61l.99.45.17-1.06Z" fill="#fff" stroke="#fff" stroke-linecap="round" stroke-linejoin="round" stroke-width="3"/>
    <path d="m110.95,25.56c-.33-.28-.67-.55-1-.82l-.04,1.06,1.04-.24Z" fill="#fff" stroke="#fff" stroke-linecap="round" stroke-linejoin="round" stroke-width="3"/>
    <path d="m66.7,11.62c-.43.04-.86.07-1.28.12l.73.78.56-.9Z" fill="#fff" stroke="#fff" stroke-linecap="round" stroke-linejoin="round" stroke-width="3"/>
    <path d="m34.05,24.74c-.34.27-.67.54-1,.82l1.04.24-.04-1.06Z" fill="#fff" stroke="#fff" stroke-linecap="round" stroke-linejoin="round" stroke-width="3"/>
    <path d="m101.16,18.85c-.38-.21-.77-.41-1.16-.61l.17,1.06.99-.45Z" fill="#fff" stroke="#fff" stroke-linecap="round" stroke-linejoin="round" stroke-width="3"/>
    <path d="m110.95,118.44l4.25,1c1.48-1.35,2.89-2.76,4.24-4.24l-1-4.25c-2.27,2.71-4.78,5.22-7.49,7.49Z" fill="#fff" stroke="#fff" stroke-linecap="round" stroke-linejoin="round" stroke-width="3"/>
    <path d="m72,11.38c1.79,0,3.55.09,5.3.24l-2.33-3.76c-.99-.05-1.98-.08-2.97-.08s-1.99.03-2.97.08l-2.33,3.76c1.75-.15,3.51-.24,5.3-.24Z" fill="#fff" stroke="#fff" stroke-linecap="round" stroke-linejoin="round" stroke-width="3"/>
    <path d="m65.42,11.74l-3.02-3.23c-1.97.3-3.92.69-5.83,1.17l-1.55,4.12c3.35-.98,6.82-1.68,10.39-2.06Z" fill="#fff" stroke="#fff" stroke-linecap="round" stroke-linejoin="round" stroke-width="3"/>
    <path d="m24.74,34.05l-4.37-.15c-1.18,1.6-2.3,3.26-3.33,4.96l1.81,3.98c1.71-3.11,3.69-6.04,5.89-8.79Z" fill="#fff" stroke="#fff" stroke-linecap="round" stroke-linejoin="round" stroke-width="3"/>
    <path d="m42.84,18.85l-3.98-1.81c-1.71,1.03-3.36,2.15-4.96,3.33l.15,4.37c2.75-2.21,5.68-4.18,8.79-5.89Z" fill="#fff" stroke="#fff" stroke-linecap="round" stroke-linejoin="round" stroke-width="3"/>
    <path d="m33.05,25.56l-4.26-1c-1.48,1.35-2.89,2.76-4.24,4.24l1,4.26c2.27-2.71,4.78-5.22,7.49-7.49Z" fill="#fff" stroke="#fff" stroke-linecap="round" stroke-linejoin="round" stroke-width="3"/>
    <path d="m53.78,14.17l-3.56-2.56c-1.88.68-3.71,1.45-5.5,2.29l-.71,4.33c3.11-1.62,6.38-2.99,9.77-4.07Z" fill="#fff" stroke="#fff" stroke-linecap="round" stroke-linejoin="round" stroke-width="3"/>
    <path d="m118.44,33.05l1-4.25c-1.35-1.48-2.76-2.89-4.24-4.24l-4.25,1c2.71,2.27,5.22,4.78,7.49,7.49Z" fill="#fff" stroke="#fff" stroke-linecap="round" stroke-linejoin="round" stroke-width="3"/>
    <path d="m109.95,24.74l.15-4.37c-1.6-1.19-3.26-2.3-4.97-3.34l-3.98,1.81c3.11,1.71,6.04,3.69,8.79,5.89Z" fill="#fff" stroke="#fff" stroke-linecap="round" stroke-linejoin="round" stroke-width="3"/>
    <path d="m100,18.23l-.71-4.33c-1.79-.85-3.63-1.62-5.51-2.3l-3.56,2.56c3.4,1.07,6.66,2.44,9.77,4.07Z" fill="#fff" stroke="#fff" stroke-linecap="round" stroke-linejoin="round" stroke-width="3"/>
    <path d="m88.97,13.8l-1.54-4.12c-1.91-.47-3.85-.87-5.83-1.17l-3.02,3.23c3.57.39,7.04,1.09,10.39,2.06Z" fill="#fff" stroke="#fff" stroke-linecap="round" stroke-linejoin="round" stroke-width="3"/>
    <path d="m44,125.77l.71,4.33c1.79.85,3.63,1.62,5.51,2.3l3.56-2.56c-3.4-1.07-6.66-2.44-9.77-4.07Z" fill="#fff" stroke="#fff" stroke-linecap="round" stroke-linejoin="round" stroke-width="3"/>
    <path d="m34.05,119.26l-.15,4.37c1.6,1.19,3.26,2.3,4.97,3.34l3.98-1.81c-3.11-1.71-6.04-3.69-8.79-5.89Z" fill="#fff" stroke="#fff" stroke-linecap="round" stroke-linejoin="round" stroke-width="3"/>
    <path d="m18.23,44l-4.33.71c-.85,1.79-1.61,3.63-2.29,5.5l2.56,3.56c1.07-3.4,2.44-6.66,4.07-9.77Z" fill="#fff" stroke="#fff" stroke-linecap="round" stroke-linejoin="round" stroke-width="3"/>
    <path d="m125.15,42.84l1.81-3.98c-1.04-1.71-2.15-3.37-3.34-4.97l-4.37.15c2.21,2.75,4.18,5.68,5.89,8.79Z" fill="#fff" stroke="#fff" stroke-linecap="round" stroke-linejoin="round" stroke-width="3"/>
    <path d="m18.85,101.16l-1.81,3.98c1.04,1.71,2.15,3.37,3.34,4.97l4.37-.15c-2.21-2.75-4.18-5.68-5.89-8.79Z" fill="#fff" stroke="#fff" stroke-linecap="round" stroke-linejoin="round" stroke-width="3"/>
    <path d="m25.56,110.95l-1,4.25c1.35,1.48,2.76,2.89,4.24,4.24l4.25-1c-2.71-2.27-5.22-4.78-7.49-7.49Z" fill="#fff" stroke="#fff" stroke-linecap="round" stroke-linejoin="round" stroke-width="3"/>
    <path d="m55.03,130.2l1.54,4.12c1.91.47,3.85.87,5.83,1.17l3.02-3.23c-3.57-.39-7.04-1.09-10.39-2.06Z" fill="#fff" stroke="#fff" stroke-linecap="round" stroke-linejoin="round" stroke-width="3"/>
    <path d="m14.17,90.22l-2.56,3.56c.68,1.88,1.45,3.71,2.3,5.51l4.33.71c-1.62-3.11-2.99-6.38-4.07-9.77Z" fill="#fff" stroke="#fff" stroke-linecap="round" stroke-linejoin="round" stroke-width="3"/>
    <path d="m11.38,72c0-1.79.09-3.55.24-5.3l-3.76,2.33c-.05.99-.08,1.98-.08,2.97s.03,1.99.08,2.97l3.76,2.33c-.15-1.75-.24-3.51-.24-5.3Z" fill="#fff" stroke="#fff" stroke-linecap="round" stroke-linejoin="round" stroke-width="3"/>
    <path d="m11.74,78.58l-3.23,3.02c.3,1.97.69,3.92,1.17,5.83l4.12,1.54c-.98-3.35-1.68-6.82-2.06-10.39Z" fill="#fff" stroke="#fff" stroke-linecap="round" stroke-linejoin="round" stroke-width="3"/>
    <path d="m13.8,55.03l-4.12,1.55c-.47,1.91-.87,3.85-1.17,5.83l3.23,3.02c.39-3.57,1.09-7.04,2.06-10.39Z" fill="#fff" stroke="#fff" stroke-linecap="round" stroke-linejoin="round" stroke-width="3"/>
    <path d="m125.15,101.16c.21-.38.41-.77.61-1.16l-1.06.17.45.99Z" fill="#fff" stroke="#fff" stroke-linecap="round" stroke-linejoin="round" stroke-width="3"/>
    <path d="m118.44,110.95c.28-.33.55-.67.82-1l-1.06-.04.24,1.04Z" fill="#fff" stroke="#fff" stroke-linecap="round" stroke-linejoin="round" stroke-width="3"/>
    <path d="m125.77,100l4.33-.71c.85-1.79,1.62-3.63,2.3-5.51l-2.56-3.56c-1.07,3.4-2.44,6.66-4.07,9.77Z" fill="#fff" stroke="#fff" stroke-linecap="round" stroke-linejoin="round" stroke-width="3"/>
    <path d="m109.95,119.26c.34-.27.67-.54,1-.82l-1.04-.24.04,1.06Z" fill="#fff" stroke="#fff" stroke-linecap="round" stroke-linejoin="round" stroke-width="3"/>
    <path d="m129.83,90.22c.13-.41.24-.83.37-1.25l-1,.37.63.88Z" fill="#fff" stroke="#fff" stroke-linecap="round" stroke-linejoin="round" stroke-width="3"/>
    <path d="m77.3,132.38c.43-.04.86-.07,1.28-.12l-.73-.78-.56.9Z" fill="#fff" stroke="#fff" stroke-linecap="round" stroke-linejoin="round" stroke-width="3"/>
    <path d="m65.42,132.26c.43.05.86.08,1.28.12l-.56-.9-.73.78Z" fill="#fff" stroke="#fff" stroke-linecap="round" stroke-linejoin="round" stroke-width="3"/>
    <path d="m88.97,130.2c.42-.12.84-.24,1.25-.37l-.88-.63-.37,1Z" fill="#fff" stroke="#fff" stroke-linecap="round" stroke-linejoin="round" stroke-width="3"/>
    <path d="m100,125.77c.39-.2.78-.4,1.16-.61l-.99-.45-.17,1.06Z" fill="#fff" stroke="#fff" stroke-linecap="round" stroke-linejoin="round" stroke-width="3"/>
    <path d="m119.26,109.95l4.37.15c1.19-1.6,2.3-3.26,3.34-4.97l-1.81-3.98c-1.71,3.11-3.69,6.04-5.89,8.79Z" fill="#fff" stroke="#fff" stroke-linecap="round" stroke-linejoin="round" stroke-width="3"/>
    <path d="m72,132.62c-1.79,0-3.55-.09-5.3-.24l2.33,3.76c.99.05,1.98.08,2.97.08s1.99-.03,2.97-.08l2.33-3.76c-1.75.15-3.51.24-5.3.24Z" fill="#fff" stroke="#fff" stroke-linecap="round" stroke-linejoin="round" stroke-width="3"/>
    <path d="m130.2,88.97l4.12-1.54c.47-1.91.87-3.85,1.17-5.83l-3.23-3.02c-.39,3.57-1.09,7.04-2.06,10.39Z" fill="#fff" stroke="#fff" stroke-linecap="round" stroke-linejoin="round" stroke-width="3"/>
    <path d="m53.78,129.83c.41.13.83.24,1.25.37l-.37-1-.88.63Z" fill="#fff" stroke="#fff" stroke-linecap="round" stroke-linejoin="round" stroke-width="3"/>
    <path d="m132.26,65.42l3.23-3.02c-.3-1.97-.69-3.92-1.17-5.83l-4.12-1.54c.98,3.35,1.68,6.82,2.06,10.39Z" fill="#fff" stroke="#fff" stroke-linecap="round" stroke-linejoin="round" stroke-width="3"/>
    <path d="m132.62,72c0,1.79-.09,3.55-.24,5.3l3.76-2.33c.05-.99.08-1.98.08-2.97s-.03-1.99-.08-2.97l-3.76-2.33c.15,1.75.24,3.51.24,5.3Z" fill="#fff" stroke="#fff" stroke-linecap="round" stroke-linejoin="round" stroke-width="3"/>
    <path d="m129.83,53.78l2.56-3.56c-.68-1.88-1.45-3.71-2.3-5.51l-4.33-.71c1.62,3.11,2.99,6.38,4.07,9.77Z" fill="#fff" stroke="#fff" stroke-linecap="round" stroke-linejoin="round" stroke-width="3"/>
    <path d="m101.16,125.15l3.98,1.81c1.71-1.04,3.37-2.15,4.97-3.34l-.15-4.37c-2.75,2.21-5.68,4.18-8.79,5.89Z" fill="#fff" stroke="#fff" stroke-linecap="round" stroke-linejoin="round" stroke-width="3"/>
    <path d="m78.58,132.26l3.02,3.23c1.97-.3,3.92-.69,5.83-1.17l1.54-4.12c-3.35.98-6.82,1.68-10.39,2.06Z" fill="#fff" stroke="#fff" stroke-linecap="round" stroke-linejoin="round" stroke-width="3"/>
    <path d="m90.22,129.83l3.56,2.56c1.88-.68,3.71-1.45,5.51-2.3l.71-4.33c-3.11,1.62-6.38,2.99-9.77,4.07Z" fill="#fff" stroke="#fff" stroke-linecap="round" stroke-linejoin="round" stroke-width="3"/>
  </g>
  <path d="m132.62,72c0-1.79-.09-3.55-.24-5.3l-.9-.56.78-.73c-.39-3.57-1.09-7.04-2.06-10.39l-1-.37.63-.88c-1.07-3.4-2.44-6.66-4.07-9.77l-1.06-.17.45-.99c-1.71-3.11-3.69-6.04-5.89-8.79l-1.06.04.24-1.04c-2.27-2.71-4.78-5.22-7.49-7.49l-1.04.24.04-1.06c-2.74-2.21-5.68-4.18-8.79-5.89l-.99.45-.17-1.06c-3.11-1.62-6.38-2.99-9.77-4.07l-.88.63-.37-1c-3.35-.98-6.82-1.68-10.39-2.06l-.73.78-.56-.9c-1.75-.15-3.51-.24-5.3-.24s-3.55.09-5.3.24l-.56.9-.73-.78c-3.57.39-7.04,1.09-10.39,2.06l-.37,1-.88-.63c-3.4,1.07-6.66,2.44-9.77,4.07l-.17,1.06-.99-.45c-3.11,1.71-6.04,3.69-8.79,5.89l.04,1.06-1.04-.24c-2.71,2.27-5.22,4.78-7.49,7.49l.24,1.04-1.06-.04c-2.21,2.74-4.18,5.68-5.89,8.79l.45.99-1.06.17c-1.62,3.11-2.99,6.38-4.07,9.77l.63.88-1,.37c-.98,3.35-1.68,6.82-2.06,10.39l.78.73-.9.56c-.15,1.75-.24,3.51-.24,5.3s.09,3.55.24,5.3l.9.56-.78.73c.39,3.57,1.09,7.04,2.06,10.39l1,.37-.63.88c1.07,3.4,2.44,6.66,4.07,9.77l1.06.17-.45.99c1.71,3.11,3.69,6.04,5.89,8.79l1.06-.04-.24,1.04c2.27,2.71,4.78,5.22,7.49,7.49l1.04-.24-.04,1.06c2.75,2.21,5.68,4.18,8.79,5.89l.99-.45.17,1.06c3.11,1.62,6.38,2.99,9.77,4.07l.88-.63.37,1c3.35.98,6.82,1.68,10.39,2.06l.73-.78.56.9c1.75.15,3.51.24,5.3.24s3.55-.09,5.3-.24l.56-.9.73.78c3.57-.39,7.04-1.09,10.39-2.06l.37-1,.88.63c3.4-1.07,6.66-2.44,9.77-4.07l.17-1.06.99.45c3.11-1.71,6.04-3.69,8.79-5.89l-.04-1.06,1.04.24c2.71-2.27,5.22-4.78,7.49-7.49l-.24-1.04,1.06.04c2.21-2.75,4.18-5.68,5.89-8.79l-.45-.99,1.06-.17c1.62-3.11,2.99-6.38,4.07-9.77l-.63-.88,1-.37c.98-3.35,1.68-6.82,2.06-10.39l-.78-.73.9-.56c.15-1.75.24-3.51.24-5.3ZM71.78,13.49s.08,0,.12,0c2.28.06,4.1,1.93,4.1,4.22,0,2.33-1.89,4.22-4.22,4.22s-4.22-1.89-4.22-4.22c0-2.33,1.89-4.23,4.22-4.23ZM21.41,60.17c-2.33,0-4.22-1.89-4.22-4.22,0-2.33,1.89-4.23,4.22-4.23.04,0,.08,0,.12,0,2.29.07,4.1,1.94,4.1,4.22,0,2.33-1.89,4.22-4.23,4.22Zm19.09,59.48c-2.33,0-4.22-1.89-4.22-4.22,0-2.33,1.89-4.23,4.22-4.23.04,0,.08,0,.12,0,2.29.07,4.1,1.94,4.1,4.22,0,2.33-1.89,4.22-4.22,4.22Zm62.55.19c-2.33,0-4.22-1.89-4.22-4.22,0-2.33,1.89-4.23,4.22-4.23.04,0,.08,0,.12,0,2.29.07,4.1,1.94,4.1,4.22,0,2.33-1.89,4.22-4.22,4.22Zm-31.4-1.79c-25.51,0-46.18-20.68-46.18-46.18s20.68-46.18,46.18-46.18,46.18,20.68,46.18,46.18-20.68,46.18-46.18,46.18Zm50.49-57.69c-2.33,0-4.22-1.89-4.22-4.22,0-2.33,1.89-4.23,4.22-4.23.04,0,.08,0,.12,0,2.29.07,4.1,1.94,4.1,4.22,0,2.33-1.89,4.22-4.22,4.22Z" fill="#fff" stroke-width="0"/>
  <g>
    <line x1="88.43" y1="70.54" x2="69.95" y2="89.02" fill="#fff" stroke="#fff" stroke-linecap="round" stroke-linejoin="round" stroke-width="8"/>
    <line x1="84.73" y1="50.21" x2="49.62" y2="85.32" fill="#fff" stroke="#fff" stroke-linecap="round" stroke-linejoin="round" stroke-width="8"/>
  </g>
</svg>