<?xml version="1.0" encoding="utf-8"?>
<!-- Generator: Adobe Illustrator 28.0.0, SVG Export Plug-In . SVG Version: 6.00 Build 0)  -->
<svg version="1.1" id="uuid-9b038b1f-528f-41f7-9102-acce86b6d7c3"
	 xmlns="http://www.w3.org/2000/svg" xmlns:xlink="http://www.w3.org/1999/xlink" x="0px" y="0px" viewBox="0 0 144 144"
	 style="enable-background:new 0 0 144 144;" xml:space="preserve">
<style type="text/css">
	.st0{fill:none;}
	.st1{display:none;}
	.st2{display:inline;fill:none;stroke:#000000;stroke-width:10;stroke-linecap:round;stroke-linejoin:round;}
</style>
<g>
	<g>
		<g>
			<path class="st0" d="M120.9,52.4c0,0-0.1,0-0.1,0c-2.3,0-4.1,1.8-4.1,4.1c0,2.3,1.8,4.1,4.1,4.1s4.1-1.8,4.1-4.1
				C124.9,54.3,123.1,52.5,120.9,52.4L120.9,52.4z"/>
		</g>
		<g>
			<path class="st0" d="M26.9,56.4c0-2.2-1.8-4-4-4.1c0,0-0.1,0-0.1,0c-2.3,0-4.1,1.8-4.1,4.1c0,2.3,1.8,4.1,4.1,4.1
				S26.9,58.6,26.9,56.4L26.9,56.4z"/>
		</g>
		<g>
			<path class="st0" d="M71.8,23.3c2.3,0,4.1-1.8,4.1-4.1c0-2.2-1.8-4.1-4-4.1c0,0-0.1,0-0.1,0c-2.3,0-4.1,1.8-4.1,4.1
				C67.7,21.4,69.5,23.3,71.8,23.3L71.8,23.3z"/>
		</g>
		<g>
			<path class="st0" d="M41.5,110.2c0,0-0.1,0-0.1,0c-2.3,0-4.1,1.8-4.1,4.1c0,2.3,1.8,4.1,4.1,4.1c2.3,0,4.1-1.8,4.1-4.1
				C45.4,112,43.7,110.2,41.5,110.2L41.5,110.2z"/>
		</g>
		<g>
			<path class="st0" d="M102.3,110.3c0,0-0.1,0-0.1,0c-2.3,0-4.1,1.8-4.1,4.1c0,2.3,1.8,4.1,4.1,4.1c2.3,0,4.1-1.8,4.1-4.1
				C106.3,112.2,104.6,110.4,102.3,110.3L102.3,110.3z"/>
		</g>
		<g>
			<path d="M35.1,26l-0.1-4.3c-1.7,1.3-3.4,2.6-5,4.1l4.1,1C34.4,26.5,34.8,26.3,35.1,26L35.1,26z"/>
		</g>
		<g>
			<path d="M44.7,19.7l0.7-4.2c-2,0.9-3.9,1.9-5.7,3l3.9,1.8C44,20.1,44.4,19.9,44.7,19.7z"/>
		</g>
		<g>
			<path d="M55.5,15.4l1.5-4c-2.1,0.5-4.2,1.1-6.2,1.9l3.5,2.5C54.7,15.6,55.1,15.5,55.5,15.4z"/>
		</g>
		<g>
			<path d="M78.4,13.3l2.9-3.1c-2.1-0.3-4.3-0.5-6.5-0.6l2.3,3.7C77.6,13.3,78,13.3,78.4,13.3z"/>
		</g>
		<g>
			<path d="M66.8,13.2l2.3-3.7c-2.2,0.1-4.3,0.3-6.5,0.6l2.9,3.1C66,13.3,66.4,13.3,66.8,13.2z"/>
		</g>
		<g>
			<path d="M20.3,43.6l-1.8-3.9c-1.1,1.8-2.1,3.7-3,5.7l4.2-0.7C19.9,44.4,20.1,44,20.3,43.6z"/>
		</g>
		<g>
			<path d="M13.3,65.6l-3.1-2.9c-0.3,2.1-0.5,4.3-0.6,6.5l3.7-2.3C13.3,66.4,13.3,66,13.3,65.6z"/>
		</g>
		<g>
			<path d="M13.2,77.2l-3.7-2.3c0.1,2.2,0.3,4.3,0.6,6.5l3.1-2.9C13.3,78,13.3,77.6,13.2,77.2z"/>
		</g>
		<g>
			<path d="M26.8,34.1l-1-4.1c-1.4,1.6-2.8,3.2-4.1,5l4.3,0.1C26.3,34.7,26.5,34.4,26.8,34.1L26.8,34.1z"/>
		</g>
		<g>
			<path d="M89.7,15.7l3.5-2.5c-2-0.7-4.1-1.4-6.2-1.9l1.5,4C88.9,15.5,89.3,15.6,89.7,15.7L89.7,15.7z"/>
		</g>
		<g>
			<path d="M15.7,54.3l-2.5-3.5c-0.7,2-1.4,4.1-1.9,6.2l4-1.5C15.5,55.1,15.6,54.7,15.7,54.3z"/>
		</g>
		<g>
			<path d="M130.8,66.8l3.7,2.3c-0.1-2.2-0.3-4.3-0.6-6.5l-3.1,2.9C130.7,66,130.7,66.4,130.8,66.8z"/>
		</g>
		<g>
			<path d="M130.7,78.4l3.1,2.9c0.3-2.1,0.5-4.3,0.6-6.5l-3.7,2.3C130.7,77.6,130.7,78,130.7,78.4z"/>
		</g>
		<g>
			<path d="M100.4,20.3l3.9-1.8c-1.8-1.1-3.7-2.1-5.7-3l0.7,4.2C99.6,19.9,100,20.1,100.4,20.3L100.4,20.3z"/>
		</g>
		<g>
			<path d="M109.9,26.8l4.1-1c-1.6-1.4-3.2-2.8-5-4.1l-0.1,4.3C109.3,26.3,109.6,26.5,109.9,26.8z"/>
		</g>
		<g>
			<path d="M128.6,55.5l4,1.5c-0.5-2.1-1.1-4.2-1.9-6.2l-2.5,3.5C128.4,54.7,128.5,55.1,128.6,55.5L128.6,55.5z"/>
		</g>
		<g>
			<path d="M118,35.1l4.3-0.1c-1.3-1.7-2.6-3.4-4.1-5l-1,4.1C117.5,34.4,117.7,34.7,118,35.1z"/>
		</g>
		<g>
			<path d="M124.3,44.7l4.2,0.7c-0.9-2-1.9-3.9-3-5.7l-1.8,3.9C123.9,44,124.1,44.4,124.3,44.7L124.3,44.7z"/>
		</g>
		<g>
			<path d="M65.6,130.7l-2.9,3.1c2.1,0.3,4.3,0.5,6.5,0.6l-2.3-3.7C66.4,130.7,66,130.7,65.6,130.7z"/>
		</g>
		<g>
			<path d="M43.6,123.7l-3.9,1.8c1.8,1.1,3.7,2.1,5.7,3l-0.7-4.2C44.4,124.1,44,123.9,43.6,123.7L43.6,123.7z"/>
		</g>
		<g>
			<path d="M128.6,88.5c-0.1,0.4-0.2,0.8-0.4,1.2l2.5,3.5c0.7-2,1.4-4.1,1.9-6.2L128.6,88.5L128.6,88.5z"/>
		</g>
		<g>
			<path d="M123.7,100.4l1.8,3.9c1.1-1.8,2.1-3.7,3-5.7l-4.2,0.7C124.1,99.6,123.9,100,123.7,100.4L123.7,100.4z"/>
		</g>
		<g>
			<path d="M26,108.9l-4.3,0.1c1.3,1.7,2.6,3.4,4.1,5l1-4.1C26.5,109.6,26.3,109.3,26,108.9z"/>
		</g>
		<g>
			<path d="M34.1,117.2l-4.1,1c1.6,1.4,3.2,2.8,5,4.1l0.1-4.3C34.7,117.7,34.4,117.5,34.1,117.2z"/>
		</g>
		<g>
			<path d="M99.3,124.3l-0.7,4.2c2-0.9,3.9-1.9,5.7-3l-3.9-1.8C100,123.9,99.6,124.1,99.3,124.3L99.3,124.3z"/>
		</g>
		<g>
			<path d="M88.5,128.6l-1.5,4c2.1-0.5,4.2-1.1,6.2-1.9l-3.5-2.5C89.3,128.4,88.9,128.5,88.5,128.6L88.5,128.6z"/>
		</g>
		<g>
			<path d="M77.2,130.8l-2.3,3.7c2.2-0.1,4.3-0.3,6.5-0.6l-2.9-3.1C78,130.7,77.6,130.7,77.2,130.8z"/>
		</g>
		<g>
			<path d="M117.2,109.9l1,4.1c1.4-1.6,2.8-3.2,4.1-5l-4.3-0.1C117.7,109.3,117.5,109.6,117.2,109.9z"/>
		</g>
		<g>
			<path d="M19.7,99.3l-4.2-0.7c0.9,2,1.9,3.9,3,5.7l1.8-3.9C20.1,100,19.9,99.6,19.7,99.3L19.7,99.3z"/>
		</g>
		<g>
			<path d="M15.4,88.5l-4-1.5c0.5,2.1,1.1,4.2,1.9,6.2l2.5-3.5C15.6,89.3,15.5,88.9,15.4,88.5L15.4,88.5z"/>
		</g>
		<g>
			<path d="M54.3,128.3l-3.5,2.5c2,0.7,4.1,1.4,6.2,1.9l-1.5-4C55.1,128.5,54.7,128.4,54.3,128.3L54.3,128.3z"/>
		</g>
		<g>
			<path d="M108.9,118l0.1,4.3c1.7-1.3,3.4-2.6,5-4.1l-4.1-1C109.6,117.5,109.3,117.7,108.9,118z"/>
		</g>
		<g>
			<path d="M58.9,137.8l3.7-4c-1.9-0.3-3.8-0.7-5.7-1.1L58.9,137.8L58.9,137.8z"/>
			<path d="M58.9,138.3c-0.1,0-0.1,0-0.2,0c-0.1-0.1-0.3-0.2-0.3-0.3l-1.9-5.1c-0.1-0.2,0-0.4,0.1-0.5c0.1-0.1,0.3-0.2,0.5-0.1
				c1.8,0.5,3.7,0.8,5.6,1.1c0.2,0,0.3,0.1,0.4,0.3c0.1,0.2,0,0.4-0.1,0.5l-3.7,4C59.2,138.2,59,138.3,58.9,138.3z M57.8,133.3
				l1.3,3.6l2.6-2.8C60.4,133.9,59,133.6,57.8,133.3z"/>
		</g>
		<g>
			<path d="M137.8,85.1l-4-3.7c-0.3,1.9-0.7,3.8-1.1,5.7L137.8,85.1L137.8,85.1z"/>
			<path d="M132.7,87.5c-0.1,0-0.2,0-0.3-0.1c-0.1-0.1-0.2-0.3-0.1-0.5c0.5-1.8,0.8-3.7,1.1-5.6c0-0.2,0.1-0.3,0.3-0.4
				c0.2-0.1,0.4,0,0.5,0.1l4,3.7c0.1,0.1,0.2,0.3,0.1,0.5c-0.1,0.1-0.2,0.3-0.3,0.3l-5.1,1.9C132.8,87.5,132.7,87.5,132.7,87.5z
				 M134.1,82.3c-0.2,1.3-0.5,2.6-0.8,3.9l3.6-1.3L134.1,82.3z"/>
		</g>
		<g>
			<path d="M46.3,134l4.5-3.2c-1.8-0.7-3.6-1.4-5.4-2.2L46.3,134L46.3,134z"/>
			<path d="M46.3,134.5L46.3,134.5c-0.2,0-0.4-0.2-0.5-0.4l-0.9-5.5c0-0.2,0-0.4,0.2-0.5c0.1-0.1,0.3-0.1,0.5-0.1
				c1.8,0.9,3.5,1.6,5.3,2.2c0.2,0.1,0.3,0.2,0.3,0.4c0,0.2-0.1,0.4-0.2,0.5l-4.5,3.2C46.5,134.4,46.4,134.5,46.3,134.5z M46.3,134
				L46.3,134L46.3,134z M46.1,129.4l0.6,3.8l3.1-2.2C48.5,130.4,47.3,129.9,46.1,129.4z"/>
		</g>
		<g>
			<path d="M69.1,134.4l2.9,4.7l2.9-4.7c-1,0-1.9,0.1-2.9,0.1S70.1,134.5,69.1,134.4z"/>
			<path d="M72,139.6c-0.2,0-0.3-0.1-0.4-0.2l-2.9-4.7c-0.1-0.2-0.1-0.3,0-0.5c0.1-0.2,0.3-0.2,0.4-0.2c1,0.1,2,0.1,2.9,0.1
				c0.9,0,1.8,0,2.9-0.1c0.2,0,0.3,0.1,0.4,0.2c0.1,0.2,0.1,0.3,0,0.5l-2.9,4.7C72.3,139.5,72.2,139.6,72,139.6z M70,134.9l2,3.2
				l2-3.2c-0.7,0-1.4,0-2,0C71.4,135,70.7,135,70,134.9z"/>
		</g>
		<g>
			<path d="M118.2,30l1.3-5.4l-5.4,1.3C115.5,27.1,116.9,28.5,118.2,30z"/>
			<path d="M118.2,30.4c-0.1,0-0.3-0.1-0.4-0.2c-1.3-1.4-2.7-2.8-4.1-4.1c-0.1-0.1-0.2-0.3-0.1-0.5s0.2-0.3,0.4-0.3l5.4-1.3
				c0.2,0,0.3,0,0.5,0.1c0.1,0.1,0.2,0.3,0.1,0.5l-1.3,5.4c0,0.2-0.2,0.3-0.3,0.4C118.3,30.4,118.2,30.4,118.2,30.4z M115,26.1
				c1,0.9,1.9,1.9,2.9,2.9l0.9-3.8L115,26.1z"/>
		</g>
		<g>
			<path d="M127.8,109.3l-2.3-5c-1,1.7-2.1,3.3-3.3,4.8L127.8,109.3L127.8,109.3z"/>
			<path d="M127.8,109.8L127.8,109.8l-5.6-0.2c-0.2,0-0.3-0.1-0.4-0.3c-0.1-0.2-0.1-0.4,0-0.5c1.1-1.5,2.2-3.1,3.2-4.8
				c0.1-0.2,0.3-0.2,0.4-0.2c0.2,0,0.3,0.1,0.4,0.3l2.3,5c0.1,0.1,0.1,0.3,0,0.5C128.1,109.7,128,109.8,127.8,109.8z M123.2,108.6
				l3.9,0.1l-1.6-3.5C124.7,106.4,123.9,107.6,123.2,108.6z"/>
		</g>
		<g>
			<path d="M114,118.2l5.4,1.3l-1.3-5.4C116.9,115.5,115.5,116.9,114,118.2z"/>
			<path d="M119.4,119.9c0,0-0.1,0-0.1,0l-5.4-1.3c-0.2,0-0.3-0.2-0.4-0.3c0-0.2,0-0.4,0.1-0.5c1.4-1.3,2.8-2.7,4.1-4.1
				c0.1-0.1,0.3-0.2,0.5-0.1c0.2,0,0.3,0.2,0.3,0.4l1.3,5.4c0,0.2,0,0.3-0.1,0.5C119.7,119.9,119.6,119.9,119.4,119.9z M115,117.9
				l3.8,0.9l-0.9-3.8C117,116,116,117,115,117.9z"/>
		</g>
		<g>
			<path d="M134.4,74.9l4.7-2.9l-4.7-2.9c0,1,0.1,1.9,0.1,2.9C134.5,73,134.5,73.9,134.4,74.9z"/>
			<path d="M134.4,75.4c-0.1,0-0.2,0-0.2-0.1c-0.2-0.1-0.2-0.3-0.2-0.4c0.1-1,0.1-2,0.1-2.9c0-0.9,0-1.8-0.1-2.9
				c0-0.2,0.1-0.3,0.2-0.4c0.2-0.1,0.3-0.1,0.5,0l4.7,2.9c0.1,0.1,0.2,0.2,0.2,0.4s-0.1,0.3-0.2,0.4l-4.7,2.9
				C134.6,75.3,134.5,75.4,134.4,75.4z M134.9,70c0,0.7,0,1.4,0,2c0,0.6,0,1.3,0,2l3.2-2L134.9,70z"/>
		</g>
		<g>
			<path d="M109.3,127.8l-0.2-5.5c-1.6,1.2-3.2,2.2-4.8,3.3L109.3,127.8L109.3,127.8z"/>
			<path d="M109.3,128.3c-0.1,0-0.1,0-0.2,0l-5-2.3c-0.2-0.1-0.3-0.2-0.3-0.4c0-0.2,0.1-0.3,0.2-0.4c1.7-1,3.3-2.1,4.8-3.2
				c0.1-0.1,0.3-0.1,0.5,0c0.2,0.1,0.3,0.2,0.3,0.4l0.2,5.5c0,0,0,0,0,0v0c0,0.2-0.1,0.3-0.2,0.4
				C109.5,128.3,109.4,128.3,109.3,128.3z M105.3,125.4l3.5,1.6l-0.1-3.9C107.6,124,106.4,124.7,105.3,125.4z"/>
		</g>
		<g>
			<path d="M134,97.7l-3.2-4.5c-0.7,1.8-1.4,3.6-2.2,5.4L134,97.7L134,97.7z"/>
			<path d="M128.5,99.1c-0.2,0-0.3-0.1-0.4-0.2c-0.1-0.1-0.1-0.3-0.1-0.5c0.9-1.8,1.6-3.5,2.2-5.3c0.1-0.2,0.2-0.3,0.4-0.3
				c0.2,0,0.4,0.1,0.5,0.2l3.2,4.5c0.1,0.1,0.1,0.2,0.1,0.3v0c0,0.2-0.2,0.4-0.4,0.5L128.5,99.1C128.6,99.1,128.6,99.1,128.5,99.1z
				 M130.9,94.2c-0.5,1.2-1,2.5-1.6,3.7l3.8-0.6L130.9,94.2z"/>
		</g>
		<g>
			<path d="M85.1,137.8l1.9-5.1c-1.9,0.5-3.7,0.8-5.7,1.1L85.1,137.8L85.1,137.8z"/>
			<path d="M85.1,138.3c-0.1,0-0.3-0.1-0.4-0.2l-3.7-4c-0.1-0.1-0.2-0.3-0.1-0.5c0.1-0.2,0.2-0.3,0.4-0.3c1.8-0.3,3.7-0.6,5.6-1.1
				c0.2,0,0.4,0,0.5,0.1c0.1,0.1,0.2,0.3,0.1,0.5l-1.9,5.1c0,0.1-0.1,0.3-0.3,0.3C85.2,138.3,85.2,138.3,85.1,138.3z M82.3,134.1
				l2.6,2.8l1.3-3.6C84.9,133.7,83.6,133.9,82.3,134.1z"/>
		</g>
		<g>
			<path d="M97.7,134l0.9-5.5c-1.7,0.8-3.5,1.6-5.4,2.2L97.7,134L97.7,134z"/>
			<path d="M97.7,134.5L97.7,134.5c-0.1,0-0.2,0-0.3-0.1l-4.5-3.2c-0.1-0.1-0.2-0.3-0.2-0.5c0-0.2,0.1-0.3,0.3-0.4
				c1.8-0.6,3.6-1.4,5.3-2.2c0.2-0.1,0.4-0.1,0.5,0.1c0.1,0.1,0.2,0.3,0.2,0.5l-0.9,5.5C98.1,134.3,97.9,134.5,97.7,134.5z
				 M97.7,134L97.7,134L97.7,134z M94.2,130.9l3.1,2.2l0.6-3.8C96.7,129.9,95.5,130.4,94.2,130.9z"/>
		</g>
		<g>
			<path d="M10,46.3l3.2,4.5c0.7-1.8,1.4-3.6,2.2-5.4L10,46.3z"/>
			<path d="M13.2,51.3c-0.2,0-0.3-0.1-0.4-0.2l-3.2-4.5c-0.1-0.1-0.1-0.3-0.1-0.5c0.1-0.2,0.2-0.3,0.4-0.3l5.4-0.9
				c0.2,0,0.4,0,0.5,0.2c0.1,0.1,0.1,0.3,0.1,0.5c-0.8,1.8-1.6,3.6-2.2,5.3C13.6,51.1,13.5,51.2,13.2,51.3
				C13.3,51.3,13.2,51.3,13.2,51.3z M10.9,46.7l2.2,3.1c0.5-1.2,1-2.5,1.5-3.7L10.9,46.7z"/>
		</g>
		<g>
			<path d="M58.9,6.2L57,11.3c1.9-0.5,3.7-0.8,5.7-1.1L58.9,6.2L58.9,6.2z"/>
			<path d="M57,11.8c-0.1,0-0.3-0.1-0.4-0.2c-0.1-0.1-0.2-0.3-0.1-0.5l1.9-5.1c0-0.2,0.1-0.3,0.3-0.3c0.2-0.1,0.4,0,0.5,0.1l3.7,4
				c0.1,0.1,0.2,0.3,0.1,0.5c-0.1,0.2-0.2,0.3-0.4,0.3c-1.8,0.3-3.7,0.6-5.6,1.1C57.1,11.8,57,11.8,57,11.8z M59.1,7.1l-1.3,3.6
				c1.4-0.3,2.7-0.6,3.9-0.8L59.1,7.1z"/>
		</g>
		<g>
			<path d="M25.8,114l-1.3,5.4l5.4-1.3C28.5,116.9,27.1,115.5,25.8,114z"/>
			<path d="M24.6,119.9c-0.1,0-0.2,0-0.3-0.1c-0.1-0.1-0.2-0.3-0.1-0.5l1.3-5.4c0-0.2,0.2-0.3,0.3-0.4c0.2,0,0.4,0,0.5,0.1
				c1.3,1.4,2.7,2.8,4.1,4.1c0.1,0.1,0.2,0.3,0.1,0.5c0,0.2-0.2,0.3-0.4,0.3l-5.4,1.3C24.6,119.9,24.6,119.9,24.6,119.9z M26.1,115
				l-0.9,3.8l3.8-0.9C28,117,27,116,26.1,115z"/>
		</g>
		<g>
			<path d="M85.1,6.2l-3.7,4c1.9,0.3,3.8,0.7,5.7,1.1L85.1,6.2L85.1,6.2z"/>
			<path d="M87,11.8c0,0-0.1,0-0.1,0c-1.8-0.5-3.7-0.8-5.6-1.1c-0.2,0-0.3-0.1-0.4-0.3c-0.1-0.2,0-0.4,0.1-0.5l3.7-4
				c0.1-0.1,0.3-0.2,0.5-0.1c0.1,0.1,0.3,0.2,0.3,0.3l1.9,5.1c0.1,0.2,0,0.4-0.1,0.5C87.3,11.8,87.2,11.8,87,11.8z M82.3,9.9
				c1.3,0.2,2.6,0.5,3.9,0.8l-1.3-3.6L82.3,9.9z"/>
		</g>
		<g>
			<path d="M34.7,127.8l5-2.3c-1.7-1-3.3-2.1-4.8-3.3L34.7,127.8L34.7,127.8z"/>
			<path d="M34.7,128.3c-0.1,0-0.2,0-0.3-0.1c-0.1-0.1-0.2-0.2-0.2-0.4v0l0.2-5.6c0-0.2,0.1-0.3,0.3-0.4c0.2-0.1,0.4-0.1,0.5,0
				c1.5,1.1,3.1,2.2,4.8,3.2c0.2,0.1,0.2,0.3,0.2,0.4c0,0.2-0.1,0.3-0.3,0.4l-5,2.3C34.8,128.3,34.8,128.3,34.7,128.3z M35.4,123.2
				l-0.1,3.9l3.5-1.6C37.6,124.7,36.4,123.9,35.4,123.2z"/>
		</g>
		<g>
			<path d="M10,97.7l5.5,0.9c-0.8-1.7-1.6-3.5-2.2-5.4L10,97.7L10,97.7z"/>
			<path d="M15.5,99C15.4,99,15.4,99,15.5,99l-5.5-0.9c-0.2,0-0.4-0.2-0.4-0.5v0c0-0.1,0-0.2,0.1-0.3l3.2-4.5
				c0.1-0.1,0.3-0.2,0.5-0.2c0.2,0,0.3,0.1,0.4,0.3c0.6,1.8,1.4,3.6,2.2,5.3c0.1,0.2,0.1,0.4-0.1,0.5C15.8,99,15.6,99,15.5,99z
				 M10.9,97.3l3.8,0.6c-0.6-1.2-1.1-2.5-1.6-3.7L10.9,97.3z"/>
		</g>
		<g>
			<path d="M97.7,10l-4.5,3.2c1.8,0.7,3.6,1.4,5.4,2.2L97.7,10L97.7,10z"/>
			<path d="M98.6,15.9c-0.1,0-0.1,0-0.2,0c-1.8-0.9-3.5-1.6-5.3-2.2c-0.2-0.1-0.3-0.2-0.3-0.4c0-0.2,0.1-0.4,0.2-0.5l4.5-3.2
				c0.1-0.1,0.2-0.1,0.3-0.1h0c0.2,0,0.4,0.2,0.5,0.4l0.9,5.5c0,0.2,0,0.4-0.2,0.5C98.8,15.9,98.7,15.9,98.6,15.9z M94.2,13.1
				c1.2,0.5,2.5,1,3.7,1.6l-0.6-3.8L94.2,13.1z"/>
		</g>
		<g>
			<path d="M46.3,10l-0.9,5.4c1.7-0.8,3.5-1.6,5.4-2.2L46.3,10z"/>
			<path d="M45.4,15.9c-0.1,0-0.2,0-0.3-0.1c-0.1-0.1-0.2-0.3-0.2-0.5l0.9-5.4c0-0.2,0.1-0.3,0.3-0.4c0.2-0.1,0.3,0,0.5,0.1l4.5,3.2
				c0.1,0.1,0.2,0.3,0.2,0.5c0,0.2-0.1,0.3-0.3,0.4c-1.9,0.7-3.6,1.4-5.3,2.2C45.6,15.9,45.5,15.9,45.4,15.9z M46.7,10.9l-0.6,3.8
				c1.2-0.5,2.4-1.1,3.7-1.5L46.7,10.9z"/>
		</g>
		<g>
			<path d="M9.6,69.1L4.9,72l4.7,2.9c0-1-0.1-1.9-0.1-2.9C9.5,71,9.5,70.1,9.6,69.1z"/>
			<path d="M9.6,75.4c-0.1,0-0.2,0-0.3-0.1l-4.7-2.9c-0.1-0.1-0.2-0.2-0.2-0.4s0.1-0.3,0.2-0.4l4.7-2.9c0.2-0.1,0.3-0.1,0.5,0
				c0.2,0.1,0.2,0.3,0.2,0.4c-0.1,1-0.1,2-0.1,2.9c0,0.9,0,1.8,0.1,2.9c0,0.2-0.1,0.3-0.2,0.4C9.8,75.4,9.7,75.4,9.6,75.4z M5.8,72
				l3.2,2c0-0.7,0-1.4,0-2c0-0.6,0-1.3,0-2L5.8,72z"/>
		</g>
		<g>
			<path d="M6.2,58.9l4,3.7c0.3-1.9,0.7-3.8,1.1-5.7L6.2,58.9L6.2,58.9z"/>
			<path d="M10.2,63.1c-0.1,0-0.2,0-0.3-0.1l-4-3.7c-0.1-0.1-0.2-0.3-0.1-0.5c0.1-0.1,0.2-0.3,0.3-0.3l5.1-1.9
				c0.2-0.1,0.4,0,0.5,0.1c0.1,0.1,0.2,0.3,0.1,0.5c-0.5,1.8-0.8,3.7-1.1,5.6c0,0.2-0.1,0.3-0.3,0.4C10.3,63.1,10.3,63.1,10.2,63.1z
				 M7.1,59.1l2.8,2.6c0.2-1.3,0.5-2.6,0.8-3.9L7.1,59.1z"/>
		</g>
		<g>
			<path d="M16.2,34.7l2.3,5c1-1.7,2.1-3.3,3.2-4.8L16.2,34.7L16.2,34.7z"/>
			<path d="M18.5,40.2C18.5,40.2,18.5,40.2,18.5,40.2c-0.2,0-0.4-0.1-0.4-0.3L15.8,35c0,0-0.1-0.1-0.1-0.1c-0.1-0.2,0-0.4,0.1-0.5
				c0.1-0.1,0.3-0.2,0.4-0.1h0l5.5,0.2c0.2,0,0.3,0.1,0.4,0.3c0.1,0.2,0.1,0.4,0,0.5c-1.2,1.6-2.3,3.2-3.2,4.8
				C18.8,40.1,18.7,40.2,18.5,40.2z M17,35.2l1.6,3.5c0.7-1.1,1.4-2.2,2.3-3.4L17,35.2z"/>
		</g>
		<g>
			<path d="M109.3,16.2l-5,2.3c1.7,1,3.3,2.1,4.8,3.3L109.3,16.2L109.3,16.2z"/>
			<path d="M109.1,22.2c-0.1,0-0.2,0-0.3-0.1c-1.5-1.1-3.1-2.2-4.8-3.2c-0.2-0.1-0.2-0.3-0.2-0.4c0-0.2,0.1-0.3,0.3-0.4l5-2.3
				c0.1-0.1,0.3-0.1,0.5,0c0.1,0.1,0.2,0.2,0.2,0.4v0l-0.2,5.6c0,0.2-0.1,0.3-0.3,0.4C109.2,22.2,109.2,22.2,109.1,22.2z
				 M105.3,18.6c1.2,0.7,2.3,1.5,3.4,2.3l0.1-3.9L105.3,18.6z"/>
		</g>
		<g>
			<path d="M6.2,85.1l5.1,1.9c-0.5-1.9-0.8-3.7-1.1-5.7L6.2,85.1L6.2,85.1z"/>
			<path d="M11.3,87.5c-0.1,0-0.1,0-0.2,0l-5.1-1.9c-0.2,0-0.3-0.1-0.3-0.3c-0.1-0.2,0-0.4,0.1-0.5l4-3.7c0.1-0.1,0.3-0.2,0.5-0.1
				c0.2,0.1,0.3,0.2,0.3,0.4c0.3,1.8,0.6,3.7,1.1,5.6c0,0.2,0,0.4-0.1,0.5C11.6,87.5,11.5,87.5,11.3,87.5z M7.1,84.9l3.6,1.3
				c-0.3-1.4-0.6-2.7-0.8-3.9L7.1,84.9z"/>
		</g>
		<g>
			<path d="M34.7,16.2l0.2,5.5c1.6-1.1,3.2-2.2,4.8-3.2L34.7,16.2L34.7,16.2z"/>
			<path d="M34.9,22.2c-0.1,0-0.1,0-0.2,0c-0.2-0.1-0.3-0.2-0.3-0.4l-0.2-5.5c0,0,0,0,0,0c0-0.3,0.2-0.5,0.5-0.5
				c0.1,0,0.2,0,0.3,0.1l5,2.3c0.2,0.1,0.3,0.2,0.3,0.4c0,0.2-0.1,0.3-0.2,0.4c-1.6,0.9-3.1,2-4.8,3.2C35.1,22.2,35,22.2,34.9,22.2z
				 M35.2,17l0.1,3.8c1.1-0.8,2.2-1.6,3.4-2.3L35.2,17z"/>
		</g>
		<g>
			<path d="M29.9,25.8l-5.4-1.3l1.3,5.4C27.1,28.5,28.5,27.1,29.9,25.8L29.9,25.8z"/>
			<path d="M25.8,30.4c0,0-0.1,0-0.1,0c-0.2,0-0.3-0.2-0.3-0.4l-1.3-5.4c0-0.2,0-0.3,0.1-0.5c0.1-0.1,0.3-0.2,0.5-0.1l5.3,1.3
				c0.1,0,0.3,0.1,0.3,0.1c0.2,0.2,0.2,0.5,0,0.7c0,0,0,0,0,0c-1.4,1.3-2.8,2.7-4.1,4.1C26.1,30.4,26,30.4,25.8,30.4z M25.2,25.2
				l0.9,3.7C27,28,28,27,29,26.1L25.2,25.2z"/>
		</g>
		<g>
			<path d="M16.2,109.3l5.5-0.2c-1.2-1.6-2.2-3.2-3.3-4.8L16.2,109.3L16.2,109.3z"/>
			<path d="M16.2,109.8L16.2,109.8c-0.2,0-0.3-0.1-0.4-0.2c-0.1-0.1-0.1-0.3,0-0.5l2.3-5c0.1-0.2,0.2-0.3,0.4-0.3
				c0.2,0,0.3,0.1,0.4,0.2c1,1.7,2.1,3.3,3.2,4.8c0.1,0.1,0.1,0.3,0,0.5c-0.1,0.2-0.2,0.3-0.4,0.3L16.2,109.8
				C16.2,109.8,16.2,109.8,16.2,109.8z M18.6,105.3l-1.6,3.5l3.9-0.1C20,107.6,19.3,106.4,18.6,105.3z"/>
		</g>
		<g>
			<path d="M74.9,9.6L72,4.9l-2.9,4.7c1,0,1.9-0.1,2.9-0.1S73.9,9.5,74.9,9.6z"/>
			<path d="M74.9,10.1C74.9,10.1,74.9,10.1,74.9,10.1c-1-0.1-2-0.1-2.9-0.1c-0.9,0-1.8,0-2.9,0.1c-0.2,0-0.3-0.1-0.4-0.2
				c-0.1-0.2-0.1-0.3,0-0.5l2.9-4.7c0.1-0.1,0.2-0.2,0.4-0.2l0,0c0.2,0,0.3,0.1,0.4,0.2l2.9,4.7c0.1,0.2,0.1,0.3,0,0.5
				C75.2,10,75.1,10.1,74.9,10.1z M72,5.8l-2,3.2c0.7,0,1.4,0,2,0c0.6,0,1.3,0,2,0L72,5.8z"/>
		</g>
		<g>
			<path d="M137.8,58.9l-5.1-1.9c0.5,1.9,0.8,3.7,1.1,5.7L137.8,58.9L137.8,58.9z"/>
			<path d="M133.8,63.1c-0.1,0-0.1,0-0.2,0c-0.2-0.1-0.3-0.2-0.3-0.4c-0.3-1.8-0.6-3.7-1.1-5.6c0-0.2,0-0.4,0.1-0.5
				c0.1-0.1,0.3-0.2,0.5-0.1l5.1,1.9c0.1,0,0.3,0.1,0.3,0.3c0.1,0.2,0,0.4-0.1,0.5l-4,3.7C134,63.1,133.9,63.1,133.8,63.1z
				 M133.3,57.8c0.3,1.4,0.6,2.7,0.8,3.9l2.8-2.6L133.3,57.8z"/>
		</g>
		<g>
			<path d="M134,46.3l-5.5-0.9c0.8,1.7,1.6,3.5,2.2,5.4L134,46.3L134,46.3z"/>
			<path d="M130.8,51.3C130.8,51.3,130.7,51.3,130.8,51.3c-0.2,0-0.4-0.2-0.5-0.3c-0.6-1.8-1.4-3.6-2.2-5.3c-0.1-0.2-0.1-0.4,0-0.5
				c0.1-0.1,0.3-0.2,0.5-0.2l5.5,0.9c0.2,0,0.4,0.2,0.4,0.5v0c0,0.1,0,0.2-0.1,0.3l-3.2,4.5C131.1,51.2,130.9,51.3,130.8,51.3z
				 M129.4,46.1c0.6,1.2,1.1,2.5,1.6,3.7l2.2-3.1L129.4,46.1z"/>
		</g>
		<g>
			<path d="M127.8,34.7l-5.5,0.2c1.2,1.6,2.2,3.2,3.3,4.8L127.8,34.7L127.8,34.7z"/>
			<path d="M125.5,40.2c-0.2,0-0.3-0.1-0.4-0.2c-1-1.7-2.1-3.3-3.2-4.8c-0.1-0.1-0.1-0.3,0-0.5c0.1-0.2,0.2-0.3,0.4-0.3l5.5-0.2
				c0,0,0,0,0,0h0c0.2,0,0.3,0.1,0.4,0.2c0.1,0.1,0.1,0.3,0,0.5l-2.3,5C125.9,40.1,125.7,40.2,125.5,40.2
				C125.5,40.2,125.5,40.2,125.5,40.2z M123.2,35.4c0.8,1.1,1.5,2.2,2.3,3.4l1.6-3.5L123.2,35.4z"/>
		</g>
		<g>
			<path d="M26,108.9c0.3,0.3,0.5,0.7,0.8,1l0.2-1L26,108.9z"/>
			<path d="M26.8,110.4c-0.1,0-0.3-0.1-0.4-0.2c-0.3-0.3-0.5-0.7-0.8-1c-0.1-0.1-0.1-0.3-0.1-0.5c0.1-0.2,0.2-0.3,0.4-0.3l1,0
				c0.2,0,0.3,0.1,0.4,0.2c0.1,0.1,0.1,0.3,0.1,0.4l-0.2,1c0,0.2-0.2,0.3-0.4,0.4C26.9,110.4,26.8,110.4,26.8,110.4z"/>
		</g>
		<g>
			<path d="M20.3,43.6c-0.2,0.4-0.4,0.7-0.6,1.1l1-0.2C20.7,44.6,20.3,43.6,20.3,43.6z"/>
			<path d="M19.7,45.2c-0.2,0-0.3-0.1-0.4-0.2c-0.1-0.1-0.1-0.3,0-0.5c0.2-0.4,0.4-0.8,0.6-1.1c0.1-0.2,0.3-0.3,0.4-0.2
				c0.2,0,0.3,0.1,0.4,0.3l0.4,1c0.1,0.1,0.1,0.3,0,0.4c-0.1,0.1-0.2,0.2-0.3,0.2L19.7,45.2C19.7,45.2,19.7,45.2,19.7,45.2z"/>
		</g>
		<g>
			<path d="M34.1,117.2c0.3,0.3,0.7,0.5,1,0.8l0-1L34.1,117.2z"/>
			<path d="M35.1,118.5c-0.1,0-0.2,0-0.3-0.1l-0.3-0.2c-0.2-0.2-0.5-0.4-0.7-0.6c-0.1-0.1-0.2-0.3-0.2-0.5c0-0.2,0.2-0.3,0.4-0.4
				l1-0.2c0.1,0,0.3,0,0.4,0.1c0.1,0.1,0.2,0.2,0.2,0.4l0,1c0,0.2-0.1,0.3-0.3,0.4C35.2,118.5,35.1,118.5,35.1,118.5z"/>
		</g>
		<g>
			<path d="M19.7,99.3c0.2,0.4,0.4,0.8,0.6,1.1l0.4-1C20.7,99.4,19.7,99.3,19.7,99.3z"/>
			<path d="M20.3,100.9c-0.2,0-0.3-0.1-0.4-0.2c-0.2-0.4-0.4-0.8-0.6-1.1c-0.1-0.2-0.1-0.4,0-0.5c0.1-0.1,0.3-0.2,0.5-0.2l1,0.2
				c0.1,0,0.3,0.1,0.3,0.2c0.1,0.1,0.1,0.3,0,0.4l-0.4,1C20.6,100.7,20.5,100.9,20.3,100.9C20.3,100.9,20.3,100.9,20.3,100.9z"/>
		</g>
		<g>
			<path d="M13.3,65.6c0,0.4-0.1,0.8-0.1,1.2l0.9-0.5L13.3,65.6L13.3,65.6z"/>
			<path d="M13.2,67.3c-0.1,0-0.2,0-0.3-0.1c-0.2-0.1-0.2-0.3-0.2-0.5c0-0.1,0-0.3,0-0.4c0-0.3,0-0.5,0.1-0.8c0-0.2,0.1-0.3,0.3-0.4
				c0.2-0.1,0.4,0,0.5,0.1l0.8,0.7c0.1,0.1,0.2,0.3,0.2,0.4c0,0.1-0.1,0.3-0.2,0.4l-0.9,0.5C13.4,67.3,13.3,67.3,13.2,67.3z"/>
		</g>
		<g>
			<path d="M13.2,77.2c0,0.4,0.1,0.8,0.1,1.2l0.8-0.7L13.2,77.2L13.2,77.2z"/>
			<path d="M13.3,78.9c-0.1,0-0.1,0-0.2,0c-0.2-0.1-0.3-0.2-0.3-0.4c0-0.3-0.1-0.6-0.1-0.9l0-0.4c0,0,0,0,0,0v0
				c0-0.2,0.1-0.3,0.2-0.4c0.2-0.1,0.3-0.1,0.5,0l0.9,0.5c0.1,0.1,0.2,0.2,0.2,0.4c0,0.1,0,0.3-0.2,0.4l-0.8,0.7
				C13.6,78.8,13.5,78.9,13.3,78.9z"/>
		</g>
		<g>
			<path d="M26.8,34.1c-0.3,0.3-0.5,0.7-0.8,1l1,0L26.8,34.1z"/>
			<path d="M27,35.6C27,35.6,27,35.6,27,35.6l-1,0c-0.2,0-0.3-0.1-0.4-0.3c-0.1-0.2,0-0.4,0.1-0.5l0.2-0.3c0.2-0.2,0.4-0.5,0.6-0.7
				c0.1-0.1,0.3-0.2,0.5-0.2c0.2,0,0.3,0.2,0.4,0.4l0.2,1c0,0.1,0,0.3-0.1,0.4C27.3,35.5,27.2,35.6,27,35.6z"/>
		</g>
		<g>
			<path d="M15.4,88.5c0.1,0.4,0.2,0.8,0.4,1.2l0.6-0.9L15.4,88.5z"/>
			<path d="M15.7,90.2C15.7,90.2,15.7,90.2,15.7,90.2c-0.3,0-0.4-0.2-0.5-0.3c-0.1-0.4-0.2-0.8-0.4-1.2c0-0.2,0-0.4,0.1-0.5
				c0.1-0.1,0.3-0.2,0.5-0.1l1,0.4c0.1,0.1,0.2,0.2,0.3,0.3c0,0.1,0,0.3-0.1,0.4L16.1,90C16,90.1,15.9,90.2,15.7,90.2z"/>
		</g>
		<g>
			<path d="M15.7,54.3c-0.1,0.4-0.2,0.8-0.4,1.2l1-0.4L15.7,54.3z"/>
			<path d="M15.4,56c-0.1,0-0.2,0-0.3-0.1c-0.1-0.1-0.2-0.3-0.1-0.5c0.1-0.2,0.1-0.4,0.2-0.6c0.1-0.2,0.1-0.4,0.2-0.7
				c0.1-0.2,0.2-0.3,0.4-0.3c0.2,0,0.4,0,0.5,0.2l0.6,0.9c0.1,0.1,0.1,0.3,0.1,0.4c0,0.1-0.2,0.3-0.3,0.3l-1,0.4
				C15.5,56,15.4,56,15.4,56z"/>
		</g>
		<g>
			<path d="M78.4,13.3c-0.4,0-0.8-0.1-1.2-0.1l0.5,0.9L78.4,13.3L78.4,13.3z"/>
			<path d="M77.7,14.6C77.7,14.6,77.7,14.6,77.7,14.6c-0.2,0-0.3-0.1-0.4-0.2l-0.5-0.9c-0.1-0.2-0.1-0.4,0-0.5
				c0.1-0.2,0.3-0.2,0.5-0.2l0.4,0c0.3,0,0.6,0,0.8,0.1c0.2,0,0.3,0.1,0.4,0.3c0.1,0.2,0,0.4-0.1,0.5l-0.7,0.8
				C78,14.5,77.8,14.6,77.7,14.6z"/>
		</g>
		<g>
			<path d="M128.6,55.5c-0.1-0.4-0.2-0.8-0.4-1.2l-0.6,0.9L128.6,55.5z"/>
			<path d="M128.6,56c-0.1,0-0.1,0-0.2,0l-1-0.4c-0.1-0.1-0.2-0.2-0.3-0.3c0-0.1,0-0.3,0.1-0.4l0.6-0.9c0.1-0.1,0.3-0.2,0.5-0.2
				c0.2,0,0.3,0.2,0.4,0.3c0.1,0.4,0.2,0.8,0.4,1.2c0,0.2,0,0.4-0.1,0.5C128.9,55.9,128.8,56,128.6,56z"/>
		</g>
		<g>
			<path d="M118,35.1c-0.3-0.3-0.5-0.7-0.8-1l-0.2,1L118,35.1z"/>
			<path d="M117,35.6c-0.1,0-0.3-0.1-0.4-0.2c-0.1-0.1-0.1-0.3-0.1-0.4l0.2-1c0-0.2,0.2-0.3,0.4-0.4c0.2,0,0.4,0,0.5,0.2
				c0.3,0.3,0.5,0.7,0.8,1c0.1,0.1,0.1,0.3,0.1,0.5c-0.1,0.2-0.2,0.3-0.4,0.3L117,35.6C117,35.6,117,35.6,117,35.6z"/>
		</g>
		<g>
			<path d="M43.6,123.7c0.4,0.2,0.7,0.4,1.1,0.6l-0.2-1L43.6,123.7z"/>
			<path d="M44.7,124.8c-0.1,0-0.2,0-0.2-0.1c-0.4-0.2-0.8-0.4-1.1-0.6c-0.2-0.1-0.3-0.3-0.2-0.4c0-0.2,0.1-0.3,0.3-0.4l1-0.4
				c0.1-0.1,0.3-0.1,0.4,0c0.1,0.1,0.2,0.2,0.2,0.3l0.2,1c0,0.2,0,0.4-0.2,0.5C44.9,124.8,44.8,124.8,44.7,124.8z"/>
		</g>
		<g>
			<path d="M124.3,44.7c-0.2-0.4-0.4-0.8-0.6-1.1l-0.4,1L124.3,44.7z"/>
			<path d="M124.3,45.2C124.3,45.2,124.3,45.2,124.3,45.2l-1.1-0.2c-0.1,0-0.3-0.1-0.3-0.2c-0.1-0.1-0.1-0.3,0-0.4l0.4-1
				c0.1-0.2,0.2-0.3,0.4-0.3c0.2,0,0.4,0.1,0.4,0.2c0.2,0.4,0.4,0.7,0.6,1.1c0.1,0.2,0.1,0.4,0,0.5
				C124.6,45.1,124.5,45.2,124.3,45.2z"/>
		</g>
		<g>
			<path d="M130.8,66.8c0-0.4-0.1-0.8-0.1-1.2l-0.8,0.7L130.8,66.8L130.8,66.8z"/>
			<path d="M130.8,67.3c-0.1,0-0.2,0-0.3-0.1l-0.9-0.5c-0.1-0.1-0.2-0.2-0.2-0.4c0-0.1,0-0.3,0.2-0.4l0.8-0.7
				c0.1-0.1,0.3-0.2,0.5-0.1c0.2,0.1,0.3,0.2,0.3,0.4c0,0.3,0.1,0.6,0.1,0.9l0,0.4c0,0,0,0,0,0v0c0,0.2-0.1,0.3-0.2,0.4
				C130.9,67.3,130.8,67.3,130.8,67.3z"/>
		</g>
		<g>
			<path d="M130.7,78.4c0-0.4,0.1-0.8,0.1-1.2l-0.9,0.5L130.7,78.4L130.7,78.4z"/>
			<path d="M130.7,78.9c-0.1,0-0.2,0-0.3-0.1l-0.8-0.7c-0.1-0.1-0.2-0.3-0.2-0.4c0-0.1,0.1-0.3,0.2-0.4l0.9-0.5
				c0.2-0.1,0.4-0.1,0.5,0c0.2,0.1,0.2,0.3,0.2,0.5l0,0.4c0,0.3,0,0.6-0.1,0.8c0,0.2-0.1,0.3-0.3,0.4
				C130.8,78.9,130.7,78.9,130.7,78.9z"/>
		</g>
		<g>
			<path d="M89.7,15.7c-0.4-0.1-0.8-0.2-1.2-0.4l0.4,1L89.7,15.7z"/>
			<path d="M88.9,16.8c0,0-0.1,0-0.1,0c-0.1,0-0.3-0.2-0.3-0.3l-0.4-1c-0.1-0.2,0-0.4,0.1-0.5c0.1-0.1,0.3-0.2,0.5-0.1
				c0.2,0.1,0.4,0.1,0.6,0.2c0.2,0.1,0.4,0.1,0.7,0.2c0.2,0.1,0.3,0.2,0.3,0.4s0,0.4-0.2,0.5l-0.9,0.6C89.1,16.8,89,16.8,88.9,16.8z
				"/>
		</g>
		<g>
			<path d="M55.5,15.4c-0.4,0.1-0.8,0.2-1.2,0.4l0.9,0.6L55.5,15.4z"/>
			<path d="M55.1,16.8c-0.1,0-0.2,0-0.3-0.1L54,16.1c-0.1-0.1-0.2-0.3-0.2-0.5s0.2-0.3,0.3-0.4c0.4-0.1,0.8-0.2,1.2-0.4
				c0.2,0,0.4,0,0.5,0.1c0.1,0.1,0.2,0.3,0.1,0.5l-0.4,1c-0.1,0.1-0.2,0.2-0.3,0.3C55.2,16.8,55.2,16.8,55.1,16.8z"/>
		</g>
		<g>
			<path d="M44.7,19.7c-0.4,0.2-0.8,0.4-1.1,0.6l1,0.4C44.6,20.7,44.7,19.7,44.7,19.7z"/>
			<path d="M44.6,21.2c-0.1,0-0.1,0-0.2,0l-1-0.4c-0.2-0.1-0.3-0.2-0.3-0.4c0-0.2,0.1-0.4,0.2-0.4c0.4-0.2,0.8-0.4,1.1-0.6
				c0.2-0.1,0.4-0.1,0.5,0c0.1,0.1,0.2,0.3,0.2,0.5l-0.2,1c0,0.1-0.1,0.3-0.2,0.3C44.7,21.2,44.7,21.2,44.6,21.2z"/>
		</g>
		<g>
			<path d="M109.9,26.8c-0.3-0.3-0.7-0.5-1-0.8l0,1L109.9,26.8z"/>
			<path d="M108.9,27.5c-0.1,0-0.2,0-0.3-0.1c-0.1-0.1-0.2-0.2-0.2-0.4l0-1c0-0.2,0.1-0.3,0.3-0.4c0.2-0.1,0.4,0,0.5,0.1l0.3,0.2
				c0.2,0.2,0.5,0.4,0.7,0.6c0.1,0.1,0.2,0.3,0.2,0.5c0,0.2-0.2,0.3-0.4,0.4l-1,0.2C109,27.5,108.9,27.5,108.9,27.5z"/>
		</g>
		<g>
			<path d="M66.8,13.2c-0.4,0-0.8,0.1-1.2,0.1l0.7,0.8L66.8,13.2L66.8,13.2z"/>
			<path d="M66.3,14.6c-0.1,0-0.3-0.1-0.4-0.2l-0.7-0.8c-0.1-0.1-0.2-0.3-0.1-0.5c0.1-0.2,0.2-0.3,0.4-0.3c0.3,0,0.6-0.1,0.9-0.1
				l0.4,0c0,0,0,0,0,0h0c0.2,0,0.3,0.1,0.4,0.2c0.1,0.2,0.1,0.3,0,0.5l-0.5,0.9C66.6,14.5,66.5,14.6,66.3,14.6
				C66.3,14.6,66.3,14.6,66.3,14.6z"/>
		</g>
		<g>
			<path d="M35.1,26c-0.3,0.3-0.7,0.5-1,0.8l1,0.2L35.1,26z"/>
			<path d="M35.1,27.5c0,0-0.1,0-0.1,0l-1-0.2c-0.2,0-0.3-0.2-0.4-0.4c0-0.2,0-0.4,0.2-0.5c0.3-0.3,0.7-0.5,1-0.8
				c0.1-0.1,0.3-0.1,0.5-0.1c0.2,0.1,0.3,0.2,0.3,0.4l0,1c0,0.2-0.1,0.3-0.2,0.4C35.3,27.5,35.2,27.5,35.1,27.5z"/>
		</g>
		<g>
			<path d="M100.4,20.3c-0.4-0.2-0.7-0.4-1.1-0.6l0.2,1C99.4,20.7,100.4,20.3,100.4,20.3z"/>
			<path d="M99.4,21.2c-0.1,0-0.2,0-0.2-0.1c-0.1-0.1-0.2-0.2-0.2-0.3l-0.2-1c0-0.2,0-0.4,0.2-0.5c0.1-0.1,0.3-0.1,0.5,0
				c0.4,0.2,0.8,0.4,1.1,0.6c0.2,0.1,0.3,0.3,0.2,0.4c0,0.2-0.1,0.3-0.3,0.4l-1,0.4C99.6,21.2,99.5,21.2,99.4,21.2z"/>
		</g>
		<g>
			<path d="M109.9,117.2l4.1,1c1.4-1.3,2.8-2.7,4.1-4.1l-1-4.1C115,112.5,112.5,115,109.9,117.2z"/>
			<path d="M114,118.7c0,0-0.1,0-0.1,0l-4.1-1c-0.2,0-0.3-0.2-0.4-0.4c0-0.2,0-0.4,0.2-0.5c2.6-2.2,5-4.6,7.2-7.2
				c0.1-0.1,0.3-0.2,0.5-0.2c0.2,0,0.3,0.2,0.4,0.4l1,4.1c0,0.2,0,0.3-0.1,0.4c-1.3,1.4-2.7,2.8-4.2,4.2
				C114.3,118.6,114.2,118.7,114,118.7z M110.9,116.9l3,0.7c1.3-1.2,2.5-2.4,3.7-3.7l-0.7-3C115.1,113.1,113.1,115.1,110.9,116.9z"
				/>
		</g>
		<g>
			<path d="M72,13c1.7,0,3.5,0.1,5.2,0.2l-2.3-3.7c-1,0-1.9-0.1-2.9-0.1s-1.9,0-2.9,0.1l-2.3,3.7C68.5,13.1,70.3,13,72,13z"/>
			<path d="M77.2,13.7C77.1,13.7,77.1,13.7,77.2,13.7c-1.9-0.2-3.5-0.2-5.2-0.2c-1.6,0-3.3,0.1-5.1,0.2c-0.2,0-0.4-0.1-0.5-0.2
				c-0.1-0.2-0.1-0.4,0-0.5l2.3-3.7c0.1-0.1,0.2-0.2,0.4-0.2C70.1,9,71.1,9,72,9c0.9,0,1.9,0,2.9,0.1c0.2,0,0.3,0.1,0.4,0.2l2.3,3.7
				c0.1,0.2,0.1,0.4,0,0.5C77.5,13.6,77.3,13.7,77.2,13.7z M69.4,10l-1.6,2.6c1.5-0.1,2.9-0.2,4.2-0.2c1.4,0,2.8,0.1,4.2,0.2
				L74.6,10C73.7,10,72.8,10,72,10C71.2,10,70.3,10,69.4,10z"/>
		</g>
		<g>
			<path d="M65.6,13.3l-2.9-3.1c-1.9,0.3-3.8,0.7-5.7,1.1l-1.5,4C58.7,14.4,62.1,13.7,65.6,13.3L65.6,13.3z"/>
			<path d="M55.5,15.8c-0.1,0-0.3-0.1-0.4-0.2C55,15.5,55,15.4,55,15.2l1.5-4c0.1-0.1,0.2-0.3,0.3-0.3c1.9-0.5,3.8-0.9,5.7-1.1
				c0.2,0,0.3,0,0.4,0.1l2.9,3.1c0.1,0.1,0.2,0.3,0.1,0.5c-0.1,0.2-0.2,0.3-0.4,0.3c-3.4,0.4-6.7,1-10,2
				C55.6,15.8,55.5,15.8,55.5,15.8z M57.3,11.8l-1.1,2.9c2.7-0.8,5.5-1.3,8.3-1.7l-2.1-2.3C60.7,11,59,11.3,57.3,11.8z"/>
		</g>
		<g>
			<path d="M26,35.1l-4.3-0.1c-1.1,1.6-2.2,3.2-3.2,4.8l1.8,3.9C21.9,40.6,23.9,37.7,26,35.1z"/>
			<path d="M20.3,44.1C20.3,44.1,20.3,44.1,20.3,44.1c-0.2,0-0.4-0.1-0.4-0.3l-1.8-3.9c-0.1-0.1-0.1-0.3,0-0.4
				c1-1.6,2.1-3.3,3.3-4.9c0.1-0.1,0.2-0.2,0.4-0.2l4.3,0.1c0.2,0,0.3,0.1,0.4,0.3c0.1,0.2,0.1,0.4-0.1,0.5
				c-2.2,2.7-4.1,5.6-5.7,8.5C20.6,44,20.4,44.1,20.3,44.1z M19.1,39.8l1.3,2.8c1.4-2.4,3-4.8,4.7-7l-3-0.1
				C20.9,36.9,19.9,38.3,19.1,39.8z"/>
		</g>
		<g>
			<path d="M43.6,20.3l-3.9-1.8c-1.7,1-3.3,2.1-4.8,3.2l0.1,4.3C37.7,23.9,40.6,21.9,43.6,20.3z"/>
			<path d="M35.1,26.5c-0.1,0-0.1,0-0.2,0c-0.2-0.1-0.3-0.2-0.3-0.4l-0.1-4.3c0-0.2,0.1-0.3,0.2-0.4c1.7-1.2,3.3-2.3,4.9-3.3
				c0.1-0.1,0.3-0.1,0.4,0l3.9,1.8c0.2,0.1,0.3,0.2,0.3,0.4c0,0.2-0.1,0.4-0.2,0.4c-3,1.6-5.8,3.5-8.5,5.7
				C35.3,26.4,35.2,26.5,35.1,26.5z M35.4,22l0.1,3c2.2-1.7,4.6-3.3,7-4.7l-2.8-1.3C38.3,19.9,36.9,20.9,35.4,22z"/>
		</g>
		<g>
			<path d="M34.1,26.8l-4.1-1c-1.4,1.3-2.8,2.7-4.1,4.1l1,4.1C29,31.5,31.4,29,34.1,26.8L34.1,26.8z"/>
			<path d="M26.8,34.6c0,0-0.1,0-0.1,0c-0.2,0-0.3-0.2-0.4-0.4l-1-4.1c0-0.2,0-0.3,0.1-0.4c1.3-1.4,2.7-2.8,4.2-4.2
				c0.1-0.1,0.3-0.1,0.4-0.1l4.1,1c0.2,0,0.3,0.2,0.4,0.3c0,0.2,0,0.3-0.1,0.5l0,0c0,0,0,0,0,0c-2.6,2.2-5,4.6-7.2,7.2
				C27.1,34.5,26.9,34.6,26.8,34.6z M26.3,30.1l0.7,3c1.9-2.1,3.9-4.2,6-6l-3-0.7C28.8,27.5,27.5,28.8,26.3,30.1z"/>
		</g>
		<g>
			<path d="M54.3,15.7l-3.5-2.5c-1.8,0.7-3.6,1.4-5.4,2.2l-0.7,4.2C47.8,18.1,51,16.8,54.3,15.7L54.3,15.7z"/>
			<path d="M44.8,20.1c-0.1,0-0.2,0-0.3-0.1c-0.1-0.1-0.2-0.3-0.2-0.5l0.7-4.2c0-0.2,0.1-0.3,0.3-0.4c1.8-0.9,3.6-1.6,5.4-2.2
				c0.2-0.1,0.3,0,0.4,0.1l3.4,2.4c0,0,0.1,0,0.1,0c0.1,0.1,0.2,0.2,0.2,0.4c0,0.2-0.1,0.4-0.3,0.4c0,0-0.1,0-0.1,0
				c-3.2,1-6.4,2.3-9.4,3.9C44.9,20.1,44.8,20.1,44.8,20.1z M45.9,15.8l-0.5,3c2.5-1.3,5.2-2.4,7.8-3.3l-2.5-1.8
				C49.1,14.3,47.5,15,45.9,15.8z"/>
		</g>
		<g>
			<path d="M117.2,34.1l1-4.1c-1.3-1.4-2.7-2.8-4.1-4.1l-4.1,1C112.5,29,115,31.5,117.2,34.1z"/>
			<path d="M117.2,34.6c-0.1,0-0.3-0.1-0.4-0.2c-2.2-2.6-4.6-5-7.2-7.2c-0.1-0.1-0.2-0.3-0.2-0.5c0-0.2,0.2-0.3,0.4-0.4l4.1-1
				c0.2,0,0.3,0,0.4,0.1c1.4,1.3,2.8,2.7,4.2,4.2c0.1,0.1,0.1,0.3,0.1,0.4l-1,4.1c0,0.2-0.2,0.3-0.4,0.4
				C117.3,34.6,117.2,34.6,117.2,34.6z M110.9,27.1c2.1,1.9,4.1,3.9,6,6l0.7-3c-1.2-1.3-2.4-2.5-3.7-3.7L110.9,27.1z"/>
		</g>
		<g>
			<path d="M108.9,26l0.1-4.3c-1.6-1.2-3.2-2.2-4.8-3.3l-3.9,1.8C103.4,21.9,106.3,23.9,108.9,26L108.9,26z"/>
			<path d="M108.9,26.5c-0.1,0-0.2,0-0.3-0.1c-2.7-2.2-5.6-4.1-8.5-5.7c-0.2-0.1-0.3-0.3-0.2-0.4c0-0.2,0.1-0.3,0.3-0.4l3.9-1.8
				c0.1-0.1,0.3-0.1,0.5,0c1.7,1,3.4,2.1,4.9,3.3c0.1,0.1,0.2,0.2,0.2,0.4l-0.1,4.3c0,0.2-0.1,0.4-0.3,0.4
				C109.1,26.5,109,26.5,108.9,26.5z M101.4,20.3c2.4,1.4,4.8,3,7,4.7l0.1-3c-1.4-1-2.8-2-4.4-2.9L101.4,20.3z"/>
		</g>
		<g>
			<path d="M99.3,19.7l-0.7-4.2c-1.7-0.8-3.5-1.6-5.4-2.2l-3.5,2.5C93,16.7,96.2,18.1,99.3,19.7L99.3,19.7z"/>
			<path d="M99.3,20.1L99.3,20.1c-0.1,0-0.2,0-0.2-0.1c-3-1.6-6.2-2.9-9.4-3.9c-0.2-0.1-0.3-0.2-0.3-0.4c0-0.2,0-0.4,0.2-0.5
				l3.5-2.5c0.1-0.1,0.3-0.1,0.4-0.1c1.8,0.7,3.6,1.4,5.4,2.3c0.1,0.1,0.2,0.2,0.3,0.4l0.7,4.2c0,0.1,0,0.3-0.1,0.4
				C99.5,20.1,99.4,20.1,99.3,20.1z M90.8,15.5c2.7,0.9,5.3,2,7.8,3.3l-0.5-3c-1.6-0.7-3.2-1.4-4.9-2L90.8,15.5z"/>
		</g>
		<g>
			<path d="M88.5,15.4l-1.5-4c-1.9-0.5-3.7-0.8-5.7-1.1l-2.9,3.1C81.9,13.7,85.3,14.4,88.5,15.4z"/>
			<path d="M88.5,15.8c0,0-0.1,0-0.1,0c-3.3-1-6.7-1.6-10-2c-0.2,0-0.3-0.1-0.4-0.3c-0.1-0.2,0-0.4,0.1-0.5L81,9.9
				c0.1-0.1,0.3-0.2,0.4-0.1c1.8,0.3,3.7,0.7,5.7,1.1c0.2,0,0.3,0.2,0.3,0.3l1.5,4c0.1,0.2,0,0.4-0.1,0.5
				C88.8,15.8,88.6,15.8,88.5,15.8z M79.4,13c2.8,0.4,5.6,0.9,8.3,1.7l-1.1-2.9c-1.8-0.4-3.5-0.8-5.1-1L79.4,13z"/>
		</g>
		<g>
			<path d="M44.7,124.3l0.7,4.2c1.7,0.8,3.5,1.6,5.4,2.2l3.5-2.5C51,127.3,47.8,125.9,44.7,124.3L44.7,124.3z"/>
			<path d="M50.8,131.3c-0.1,0-0.1,0-0.2,0c-1.8-0.7-3.6-1.4-5.4-2.3c-0.1-0.1-0.2-0.2-0.3-0.4l-0.7-4.2c0-0.1,0-0.3,0.1-0.4
				c0.1-0.1,0.2-0.2,0.4-0.2h0c0.1,0,0.2,0,0.2,0.1c3,1.6,6.2,2.9,9.4,3.9c0.2,0.1,0.3,0.2,0.3,0.4c0,0.2,0,0.4-0.2,0.5l-3.5,2.5
				C51,131.2,50.9,131.3,50.8,131.3z M45.9,128.2c1.6,0.7,3.2,1.4,4.9,2l2.5-1.8c-2.7-0.9-5.3-2-7.8-3.3L45.9,128.2z"/>
		</g>
		<g>
			<path d="M35.1,118l-0.1,4.3c1.6,1.2,3.2,2.2,4.8,3.3l3.9-1.8C40.6,122.1,37.7,120.1,35.1,118L35.1,118z"/>
			<path d="M39.8,126c-0.1,0-0.2,0-0.3-0.1c-1.7-1-3.4-2.1-4.9-3.3c-0.1-0.1-0.2-0.2-0.2-0.4l0.1-4.3c0-0.2,0.1-0.4,0.3-0.4
				c0.2-0.1,0.4,0,0.5,0.1c2.7,2.2,5.6,4.1,8.5,5.7c0.2,0.1,0.3,0.3,0.2,0.4c0,0.2-0.1,0.3-0.3,0.4l-3.9,1.8
				C39.9,126,39.8,126,39.8,126z M35.4,122c1.4,1,2.8,2,4.4,2.9l2.8-1.3c-2.4-1.4-4.8-3-7-4.7L35.4,122z"/>
		</g>
		<g>
			<path d="M19.7,44.7l-4.2,0.7c-0.8,1.7-1.6,3.5-2.2,5.4l2.5,3.5C16.8,50.9,18.1,47.8,19.7,44.7L19.7,44.7z"/>
			<path d="M15.7,54.7c-0.2,0-0.3-0.1-0.4-0.2l-2.5-3.5c-0.1-0.1-0.1-0.3-0.1-0.4c0.7-1.9,1.4-3.7,2.2-5.4c0.1-0.1,0.2-0.2,0.4-0.3
				l4.2-0.7c0,0,0.1,0,0.1,0h0c0.2,0,0.3,0.1,0.4,0.2c0.1,0.1,0.1,0.3,0,0.5c-1.6,3-2.9,6.2-3.9,9.4C16.1,54.6,16,54.7,15.7,54.7
				C15.8,54.7,15.7,54.7,15.7,54.7z M13.8,50.7l1.8,2.5c0.9-2.7,2-5.3,3.3-7.8l-3,0.5C15.1,47.4,14.4,49,13.8,50.7z"/>
		</g>
		<g>
			<path d="M123.7,43.6l1.8-3.9c-1-1.7-2.1-3.3-3.3-4.8l-4.3,0.1C120.1,37.7,122.1,40.6,123.7,43.6L123.7,43.6z"/>
			<path d="M123.7,44.1c-0.1,0-0.2,0-0.3-0.1l0,0c0,0-0.1-0.1-0.1-0.1c-1.6-3-3.5-5.8-5.7-8.5c-0.1-0.1-0.1-0.3-0.1-0.5
				c0.1-0.2,0.2-0.3,0.4-0.3l4.3-0.1c0.2,0,0.3,0.1,0.4,0.2c1.1,1.5,2.2,3.2,3.3,4.9c0.1,0.1,0.1,0.3,0,0.5l-1.8,3.9
				C124.1,44,124,44.1,123.7,44.1C123.8,44.1,123.8,44.1,123.7,44.1z M119,35.5c1.7,2.2,3.3,4.6,4.7,7.1l1.3-2.8
				c-0.9-1.5-1.9-3-2.9-4.4L119,35.5z"/>
		</g>
		<g>
			<path d="M20.3,100.4l-1.8,3.9c1,1.7,2.1,3.3,3.3,4.8l4.3-0.1C23.9,106.3,21.9,103.4,20.3,100.4L20.3,100.4z"/>
			<path d="M21.8,109.6c-0.2,0-0.3-0.1-0.4-0.2c-1.1-1.5-2.2-3.2-3.3-4.9c-0.1-0.1-0.1-0.3,0-0.5l1.8-3.9c0.1-0.1,0.2-0.2,0.4-0.3
				c0.2,0,0.3,0,0.4,0.1l0,0c0,0,0.1,0.1,0.1,0.1c1.6,3,3.5,5.8,5.7,8.5c0.1,0.1,0.1,0.3,0.1,0.5c-0.1,0.2-0.2,0.3-0.4,0.3
				L21.8,109.6C21.8,109.6,21.8,109.6,21.8,109.6z M19.1,104.2c0.9,1.5,1.9,3,2.9,4.4l3-0.1c-1.7-2.2-3.3-4.6-4.7-7.1L19.1,104.2z"
				/>
		</g>
		<g>
			<path d="M26.8,109.9l-1,4.1c1.3,1.4,2.7,2.8,4.1,4.1l4.1-1C31.5,115,29,112.5,26.8,109.9z"/>
			<path d="M30,118.7c-0.1,0-0.2,0-0.3-0.1c-1.4-1.3-2.8-2.7-4.2-4.2c-0.1-0.1-0.1-0.3-0.1-0.4l1-4.1c0-0.2,0.2-0.3,0.4-0.4
				c0.2,0,0.4,0,0.5,0.2c2.2,2.6,4.6,5,7.2,7.2c0.1,0.1,0.2,0.3,0.2,0.5c0,0.2-0.2,0.3-0.4,0.4l-4.1,1C30,118.7,30,118.7,30,118.7z
				 M26.4,113.9c1.2,1.3,2.4,2.5,3.7,3.7l3-0.7c-2.1-1.8-4.1-3.9-6-6L26.4,113.9z"/>
		</g>
		<g>
			<path d="M55.5,128.6l1.5,4c1.9,0.5,3.7,0.8,5.7,1.1l2.9-3.1C62.1,130.3,58.7,129.6,55.5,128.6z"/>
			<path d="M62.7,134.3C62.6,134.3,62.6,134.3,62.7,134.3c-1.9-0.3-3.8-0.7-5.8-1.2c-0.2,0-0.3-0.2-0.3-0.3l-1.5-4
				c-0.1-0.2,0-0.4,0.1-0.5c0.1-0.1,0.3-0.2,0.5-0.1c3.3,1,6.7,1.6,10,2c0.2,0,0.3,0.1,0.4,0.3c0.1,0.2,0,0.4-0.1,0.5l-2.9,3.1
				C62.9,134.2,62.8,134.3,62.7,134.3z M57.3,132.2c1.8,0.4,3.5,0.8,5.1,1l2.1-2.3c-2.8-0.4-5.6-0.9-8.3-1.7L57.3,132.2z"/>
		</g>
		<g>
			<path d="M15.7,89.7l-2.5,3.5c0.7,1.8,1.4,3.6,2.2,5.4l4.2,0.7C18.1,96.2,16.8,93,15.7,89.7L15.7,89.7z"/>
			<path d="M19.7,99.7C19.6,99.7,19.6,99.7,19.7,99.7L15.4,99c-0.2,0-0.3-0.1-0.4-0.3c-0.9-1.8-1.6-3.6-2.3-5.4
				c-0.1-0.1,0-0.3,0.1-0.4l2.5-3.5c0.1-0.2,0.3-0.2,0.5-0.2c0.2,0.1,0.3,0.2,0.3,0.4c1,3.2,2.3,6.4,3.9,9.4c0.1,0.2,0.1,0.4,0,0.5
				C20,99.7,19.8,99.7,19.7,99.7z M15.8,98.1l3,0.5c-1.3-2.5-2.4-5.2-3.3-7.8l-1.8,2.5C14.4,94.9,15,96.5,15.8,98.1z"/>
		</g>
		<g>
			<path d="M13,72c0-1.7,0.1-3.5,0.2-5.2l-3.7,2.3c0,1-0.1,1.9-0.1,2.9c0,1,0,1.9,0.1,2.9l3.7,2.3C13.1,75.5,13,73.7,13,72z"/>
			<path d="M13.2,77.6c-0.1,0-0.2,0-0.3-0.1l-3.7-2.3c-0.1-0.1-0.2-0.2-0.2-0.4C9,73.9,9,72.9,9,72c0-0.9,0-1.9,0.1-2.9
				c0-0.2,0.1-0.3,0.2-0.4l3.7-2.3c0.2-0.1,0.4-0.1,0.5,0c0.2,0.1,0.2,0.3,0.2,0.5c-0.2,1.8-0.2,3.5-0.2,5.1c0,1.6,0.1,3.3,0.2,5.1
				c0,0.2-0.1,0.4-0.2,0.5C13.4,77.6,13.3,77.6,13.2,77.6z M10,74.6l2.6,1.6c-0.1-1.5-0.2-2.9-0.2-4.2c0-1.4,0.1-2.8,0.2-4.2
				L10,69.4c0,0.9-0.1,1.8-0.1,2.6C10,72.8,10,73.7,10,74.6z"/>
		</g>
		<g>
			<path d="M13.3,78.4l-3.1,2.9c0.3,1.9,0.7,3.8,1.1,5.7l4,1.5C14.4,85.3,13.7,81.9,13.3,78.4z"/>
			<path d="M15.4,89c-0.1,0-0.1,0-0.2,0l-4-1.5c-0.1-0.1-0.3-0.2-0.3-0.3c-0.5-1.9-0.9-3.8-1.1-5.7c0-0.2,0-0.3,0.1-0.4l3.1-2.9
				c0.1-0.1,0.3-0.2,0.5-0.1c0.2,0.1,0.3,0.2,0.3,0.4c0.4,3.4,1,6.7,2,10c0.1,0.2,0,0.4-0.1,0.5C15.6,89,15.5,89,15.4,89z
				 M11.8,86.7l2.9,1.1c-0.8-2.7-1.3-5.5-1.7-8.3l-2.3,2.1C11,83.3,11.3,85,11.8,86.7z"/>
		</g>
		<g>
			<path d="M15.4,55.5l-4,1.5c-0.5,1.9-0.8,3.7-1.1,5.7l3.1,2.9C13.7,62.1,14.4,58.8,15.4,55.5L15.4,55.5z"/>
			<path d="M13.3,66.1c-0.1,0-0.2,0-0.3-0.1L9.9,63c-0.1-0.1-0.2-0.3-0.1-0.4c0.3-1.8,0.7-3.7,1.1-5.7c0-0.2,0.1-0.3,0.3-0.3l4-1.5
				c0.1-0.1,0.3,0,0.4,0.1c0.1,0.1,0.2,0.2,0.2,0.4v0c0,0,0,0.1,0,0.1c-1,3.3-1.6,6.7-2,10c0,0.2-0.1,0.3-0.3,0.4
				C13.5,66.1,13.4,66.1,13.3,66.1z M10.7,62.5l2.3,2.1c0.4-2.8,0.9-5.6,1.7-8.3l-2.9,1.1C11.3,59.1,11,60.8,10.7,62.5z"/>
		</g>
		<g>
			<path d="M123.7,100.4c0.2-0.4,0.4-0.7,0.6-1.1l-1,0.2C123.3,99.4,123.7,100.4,123.7,100.4z"/>
			<path d="M123.7,100.9C123.7,100.9,123.7,100.9,123.7,100.9c-0.2,0-0.4-0.1-0.4-0.3l-0.4-1c-0.1-0.1-0.1-0.3,0-0.4
				c0.1-0.1,0.2-0.2,0.3-0.2l1-0.2c0.2,0,0.4,0,0.5,0.2c0.1,0.1,0.1,0.3,0,0.5c-0.2,0.4-0.4,0.8-0.6,1.1
				C124.1,100.8,123.9,100.9,123.7,100.9z"/>
		</g>
		<g>
			<path d="M117.2,109.9c0.3-0.3,0.5-0.7,0.8-1l-1,0L117.2,109.9z"/>
			<path d="M117.2,110.4c0,0-0.1,0-0.1,0c-0.2,0-0.3-0.2-0.4-0.4l-0.2-1c0-0.1,0-0.3,0.1-0.4c0.1-0.1,0.2-0.2,0.4-0.2l1,0
				c0.2,0,0.3,0.1,0.4,0.3c0.1,0.2,0,0.4-0.1,0.5l-0.2,0.3c-0.2,0.2-0.4,0.5-0.6,0.7C117.5,110.3,117.3,110.4,117.2,110.4z"/>
		</g>
		<g>
			<path d="M124.3,99.3l4.2-0.7c0.8-1.7,1.6-3.5,2.2-5.4l-2.5-3.5C127.3,93,125.9,96.2,124.3,99.3L124.3,99.3z"/>
			<path d="M124.3,99.7c-0.1,0-0.2,0-0.3-0.1c-0.1-0.1-0.2-0.2-0.2-0.4v0c0-0.1,0-0.2,0.1-0.2c1.6-3,2.9-6.2,3.9-9.4
				c0.1-0.2,0.2-0.3,0.4-0.3c0.2,0,0.4,0,0.5,0.2l2.5,3.5c0.1,0.1,0.1,0.3,0.1,0.4c-0.7,1.8-1.4,3.6-2.3,5.4
				c-0.1,0.1-0.2,0.2-0.4,0.3L124.3,99.7C124.4,99.7,124.4,99.7,124.3,99.7z M128.5,90.8c-0.9,2.7-2,5.3-3.3,7.8l3-0.5
				c0.7-1.6,1.4-3.2,2-4.9L128.5,90.8z"/>
		</g>
		<g>
			<path d="M108.9,118c0.3-0.3,0.7-0.5,1-0.8l-1-0.2L108.9,118z"/>
			<path d="M108.9,118.5c-0.1,0-0.1,0-0.2,0c-0.2-0.1-0.3-0.2-0.3-0.4l0-1c0-0.2,0.1-0.3,0.2-0.4c0.1-0.1,0.3-0.1,0.4-0.1l1,0.2
				c0.2,0,0.3,0.2,0.4,0.4c0,0.2,0,0.4-0.2,0.5c-0.3,0.3-0.7,0.5-1,0.8C109.1,118.4,109,118.5,108.9,118.5z"/>
		</g>
		<g>
			<path d="M128.3,89.7c0.1-0.4,0.2-0.8,0.4-1.2l-1,0.4L128.3,89.7z"/>
			<path d="M128.3,90.2c-0.2,0-0.3-0.1-0.4-0.2l-0.6-0.9c-0.1-0.1-0.1-0.3-0.1-0.4c0-0.1,0.2-0.3,0.3-0.3l1-0.4
				c0.2-0.1,0.4,0,0.5,0.1c0.1,0.1,0.2,0.3,0.1,0.5c-0.1,0.2-0.1,0.4-0.2,0.6c-0.1,0.2-0.1,0.4-0.2,0.7
				C128.7,90.1,128.5,90.2,128.3,90.2C128.3,90.2,128.3,90.2,128.3,90.2z"/>
		</g>
		<g>
			<path d="M77.2,130.8c0.4,0,0.8-0.1,1.2-0.1l-0.7-0.8L77.2,130.8L77.2,130.8z"/>
			<path d="M77.2,131.3L77.2,131.3c-0.2,0-0.3-0.1-0.4-0.2c-0.1-0.2-0.1-0.3,0-0.5l0.5-0.9c0.1-0.1,0.2-0.2,0.4-0.2
				c0.1,0,0.3,0,0.4,0.2l0.7,0.8c0.1,0.1,0.2,0.3,0.1,0.5c-0.1,0.2-0.2,0.3-0.4,0.3c-0.3,0-0.6,0.1-0.9,0.1L77.2,131.3
				C77.2,131.2,77.2,131.3,77.2,131.3z"/>
		</g>
		<g>
			<path d="M65.6,130.7c0.4,0,0.8,0.1,1.2,0.1l-0.5-0.9L65.6,130.7L65.6,130.7z"/>
			<path d="M66.8,131.3C66.8,131.3,66.8,131.2,66.8,131.3c-0.2,0-0.3,0-0.5,0c-0.3,0-0.5,0-0.8-0.1c-0.2,0-0.3-0.1-0.4-0.3
				c-0.1-0.2,0-0.4,0.1-0.5l0.7-0.8c0.1-0.1,0.3-0.2,0.4-0.2c0.1,0,0.3,0.1,0.4,0.2l0.5,0.9c0.1,0.2,0.1,0.4,0,0.5
				C67.2,131.2,67,131.3,66.8,131.3z"/>
		</g>
		<g>
			<path d="M88.5,128.6c0.4-0.1,0.8-0.2,1.2-0.4l-0.9-0.6L88.5,128.6z"/>
			<path d="M88.5,129.1c-0.1,0-0.3-0.1-0.4-0.2c-0.1-0.1-0.2-0.3-0.1-0.5l0.4-1c0.1-0.1,0.2-0.2,0.3-0.3c0.1,0,0.3,0,0.4,0.1
				l0.9,0.6c0.1,0.1,0.2,0.3,0.2,0.5c0,0.2-0.2,0.3-0.3,0.4c-0.4,0.1-0.8,0.2-1.2,0.4C88.6,129.1,88.6,129.1,88.5,129.1z"/>
		</g>
		<g>
			<path d="M99.3,124.3c0.4-0.2,0.8-0.4,1.1-0.6l-1-0.4C99.4,123.3,99.3,124.3,99.3,124.3z"/>
			<path d="M99.3,124.8c-0.1,0-0.2,0-0.3-0.1c-0.1-0.1-0.2-0.3-0.2-0.5l0.2-1c0-0.1,0.1-0.3,0.2-0.3c0.1-0.1,0.3-0.1,0.4,0l1,0.4
				c0.2,0.1,0.3,0.2,0.3,0.4c0,0.2-0.1,0.4-0.2,0.4c-0.4,0.2-0.7,0.4-1.1,0.6C99.4,124.8,99.3,124.8,99.3,124.8z"/>
		</g>
		<g>
			<path d="M118,108.9l4.3,0.1c1.2-1.6,2.2-3.2,3.3-4.8l-1.8-3.9C122.1,103.4,120.1,106.3,118,108.9L118,108.9z"/>
			<path d="M122.3,109.6C122.2,109.6,122.2,109.6,122.3,109.6l-4.3-0.1c-0.2,0-0.4-0.1-0.4-0.3c-0.1-0.2,0-0.4,0.1-0.5
				c2.2-2.7,4.1-5.6,5.7-8.5c0.1-0.2,0.3-0.3,0.4-0.2c0.2,0,0.3,0.1,0.4,0.3l1.8,3.9c0.1,0.1,0.1,0.3,0,0.5c-1,1.7-2.1,3.4-3.3,4.9
				C122.5,109.5,122.4,109.6,122.3,109.6z M119,108.5l3,0.1c1-1.4,2-2.8,2.9-4.4l-1.3-2.8C122.3,103.9,120.7,106.2,119,108.5z"/>
		</g>
		<g>
			<path d="M72,131c-1.7,0-3.5-0.1-5.2-0.2l2.3,3.7c1,0,1.9,0.1,2.9,0.1s1.9,0,2.9-0.1l2.3-3.7C75.5,130.9,73.7,131,72,131z"/>
			<path d="M72,135c-0.9,0-1.9,0-2.9-0.1c-0.2,0-0.3-0.1-0.4-0.2l-2.3-3.7c-0.1-0.2-0.1-0.4,0-0.5c0.1-0.2,0.3-0.2,0.5-0.2
				c1.8,0.2,3.5,0.2,5.1,0.2c1.6,0,3.3-0.1,5.1-0.2c0.2,0,0.4,0.1,0.5,0.2c0.1,0.2,0.1,0.4,0,0.5l-2.3,3.7c-0.1,0.1-0.2,0.2-0.4,0.2
				C73.9,135,72.9,135,72,135z M69.4,134c0.9,0,1.8,0.1,2.6,0.1c0.8,0,1.7,0,2.6-0.1l1.6-2.6c-1.5,0.1-2.9,0.2-4.2,0.2
				c-1.4,0-2.8-0.1-4.2-0.2L69.4,134z"/>
		</g>
		<g>
			<path d="M128.6,88.5l4-1.5c0.5-1.9,0.8-3.7,1.1-5.7l-3.1-2.9C130.3,81.9,129.6,85.3,128.6,88.5z"/>
			<path d="M128.6,89c-0.1,0-0.2,0-0.3-0.1c-0.1-0.1-0.2-0.3-0.1-0.5c1-3.3,1.6-6.7,2-10c0-0.2,0.1-0.3,0.3-0.4
				c0.2-0.1,0.4,0,0.5,0.1l3.1,2.9c0.1,0.1,0.2,0.3,0.1,0.4c-0.3,1.8-0.7,3.7-1.1,5.7c0,0.2-0.2,0.3-0.3,0.3l-4,1.5
				C128.8,89,128.7,89,128.6,89z M131,79.4c-0.4,2.8-0.9,5.6-1.7,8.3l2.9-1.1c0.4-1.8,0.8-3.5,1-5.1L131,79.4z"/>
		</g>
		<g>
			<path d="M54.3,128.3c0.4,0.1,0.8,0.2,1.2,0.4l-0.4-1L54.3,128.3z"/>
			<path d="M55.5,129.1c0,0-0.1,0-0.1,0c-0.2-0.1-0.4-0.1-0.6-0.2c-0.2-0.1-0.4-0.1-0.7-0.2c-0.2-0.1-0.3-0.2-0.3-0.4
				c0-0.2,0-0.4,0.2-0.5l0.9-0.6c0.1-0.1,0.3-0.1,0.4-0.1c0.1,0,0.3,0.2,0.3,0.3l0.4,1c0.1,0.2,0,0.4-0.1,0.5
				C55.7,129.1,55.6,129.1,55.5,129.1z"/>
		</g>
		<g>
			<path d="M130.7,65.6l3.1-2.9c-0.3-1.9-0.7-3.8-1.1-5.7l-4-1.5C129.6,58.7,130.3,62.1,130.7,65.6z"/>
			<path d="M130.7,66.1c-0.1,0-0.1,0-0.2,0c-0.2-0.1-0.3-0.2-0.3-0.4c-0.4-3.4-1-6.7-2-10c-0.1-0.2,0-0.4,0.1-0.5
				c0.1-0.1,0.3-0.2,0.5-0.1l4,1.5c0.1,0.1,0.3,0.2,0.3,0.3c0.5,1.9,0.9,3.8,1.1,5.7c0,0.2,0,0.3-0.1,0.4l-3.1,2.9
				C130.9,66,130.8,66.1,130.7,66.1z M129.4,56.3c0.8,2.7,1.3,5.5,1.7,8.3l2.3-2.1c-0.3-1.7-0.6-3.5-1-5.1L129.4,56.3z"/>
		</g>
		<g>
			<path d="M131,72c0,1.7-0.1,3.5-0.2,5.2l3.7-2.3c0-1,0.1-1.9,0.1-2.9c0-1,0-1.9-0.1-2.9l-3.7-2.3C130.9,68.5,131,70.3,131,72z"/>
			<path d="M130.8,77.6c-0.1,0-0.2,0-0.3-0.1c-0.2-0.1-0.2-0.3-0.2-0.5c0.2-1.8,0.2-3.5,0.2-5.1c0-1.6-0.1-3.3-0.2-5.1
				c0-0.2,0.1-0.4,0.2-0.5c0.2-0.1,0.4-0.1,0.5,0l3.7,2.3c0.1,0.1,0.2,0.2,0.2,0.4c0.1,1,0.1,2,0.1,2.9c0,0.9,0,1.9-0.1,2.9
				c0,0.2-0.1,0.3-0.2,0.4l-3.7,2.3C130.9,77.6,130.9,77.6,130.8,77.6z M131.3,67.8c0.1,1.5,0.2,2.9,0.2,4.2s-0.1,2.8-0.2,4.2
				l2.6-1.6c0-0.9,0.1-1.8,0.1-2.6c0-0.8,0-1.7-0.1-2.6L131.3,67.8z"/>
		</g>
		<g>
			<path d="M128.3,54.3l2.5-3.5c-0.7-1.8-1.4-3.6-2.2-5.4l-4.2-0.7C125.9,47.8,127.2,51,128.3,54.3L128.3,54.3z"/>
			<path d="M128.3,54.7c0,0-0.1,0-0.1,0c-0.2-0.1-0.3-0.2-0.3-0.4c-1-3.2-2.3-6.4-3.9-9.4c-0.1-0.2-0.1-0.4,0-0.5
				c0.1-0.1,0.3-0.2,0.5-0.2l4.2,0.7c0.2,0,0.3,0.1,0.4,0.3c0.9,1.8,1.6,3.6,2.3,5.4c0.1,0.1,0,0.3-0.1,0.4l-2.5,3.5
				C128.6,54.7,128.4,54.7,128.3,54.7z M125.2,45.4c1.3,2.5,2.4,5.2,3.3,7.8l1.8-2.5c-0.6-1.6-1.3-3.2-2-4.9L125.2,45.4z"/>
		</g>
		<g>
			<path d="M100.4,123.7l3.9,1.8c1.7-1,3.3-2.1,4.8-3.3l-0.1-4.3C106.3,120.1,103.4,122.1,100.4,123.7L100.4,123.7z"/>
			<path d="M104.3,126c-0.1,0-0.1,0-0.2,0l-3.9-1.8c-0.1-0.1-0.2-0.2-0.3-0.4c0-0.2,0-0.3,0.1-0.4l0,0c0,0,0.1-0.1,0.1-0.1
				c3-1.6,5.8-3.5,8.5-5.7c0.1-0.1,0.3-0.1,0.5-0.1c0.2,0.1,0.3,0.2,0.3,0.4l0.1,4.3c0,0.2-0.1,0.3-0.2,0.4
				c-1.5,1.1-3.2,2.2-4.9,3.3C104.4,126,104.3,126,104.3,126z M101.4,123.7l2.8,1.3c1.5-0.9,3-1.9,4.4-2.9l-0.1-3
				C106.3,120.7,103.9,122.3,101.4,123.7z"/>
		</g>
		<g>
			<path d="M78.4,130.7l2.9,3.1c1.9-0.3,3.8-0.7,5.7-1.1l1.5-4C85.3,129.6,81.9,130.3,78.4,130.7z"/>
			<path d="M81.3,134.3c-0.1,0-0.3-0.1-0.4-0.2l-2.9-3.1c-0.1-0.1-0.2-0.3-0.1-0.5c0.1-0.2,0.2-0.3,0.4-0.3c3.4-0.4,6.7-1,10-2
				c0.2-0.1,0.4,0,0.5,0.1c0.1,0.1,0.2,0.3,0.1,0.5l-1.5,4c-0.1,0.1-0.2,0.3-0.3,0.3C85.3,133.6,83.4,134,81.3,134.3
				C81.4,134.3,81.4,134.3,81.3,134.3z M79.4,131l2.1,2.3c1.7-0.3,3.5-0.6,5.1-1l1.1-2.9C85,130.1,82.2,130.7,79.4,131z"/>
		</g>
		<g>
			<path d="M89.7,128.3l3.5,2.5c1.8-0.7,3.6-1.4,5.4-2.2l0.7-4.2C96.2,125.9,93,127.2,89.7,128.3L89.7,128.3z"/>
			<path d="M93.2,131.3c-0.1,0-0.2,0-0.3-0.1l-3.5-2.5c-0.2-0.1-0.2-0.3-0.2-0.5c0.1-0.2,0.2-0.3,0.4-0.3c3.2-1,6.4-2.3,9.4-3.9
				c0.2-0.1,0.4-0.1,0.5,0c0.1,0.1,0.2,0.3,0.2,0.5l-0.7,4.2c0,0.2-0.1,0.3-0.3,0.4c-1.8,0.9-3.6,1.6-5.4,2.3
				C93.3,131.3,93.3,131.3,93.2,131.3z M90.8,128.5l2.5,1.8c1.6-0.6,3.2-1.3,4.9-2l0.5-3C96.1,126.5,93.5,127.6,90.8,128.5z"/>
		</g>
	</g>
	<g>
		<g>
			<path class="st0" d="M41.5,110.2c0,0-0.1,0-0.1,0c-2.3,0-4.1,1.8-4.1,4.1c0,2.3,1.8,4.1,4.1,4.1c2.3,0,4.1-1.8,4.1-4.1
				C45.4,112,43.7,110.2,41.5,110.2L41.5,110.2z"/>
		</g>
		<g>
			<path class="st0" d="M71.8,23.3c2.3,0,4.1-1.8,4.1-4.1c0-2.2-1.8-4.1-4-4.1c0,0-0.1,0-0.1,0c-2.3,0-4.1,1.8-4.1,4.1
				C67.7,21.4,69.5,23.3,71.8,23.3L71.8,23.3z"/>
		</g>
		<g>
			<path class="st0" d="M22.9,52.3c0,0-0.1,0-0.1,0c-2.3,0-4.1,1.8-4.1,4.1c0,2.3,1.8,4.1,4.1,4.1s4.1-1.8,4.1-4.1
				C26.9,54.1,25.1,52.3,22.9,52.3L22.9,52.3z"/>
		</g>
		<g>
			<path class="st0" d="M102.3,110.3c0,0-0.1,0-0.1,0c-2.3,0-4.1,1.8-4.1,4.1c0,2.3,1.8,4.1,4.1,4.1c2.3,0,4.1-1.8,4.1-4.1
				C106.3,112.2,104.6,110.4,102.3,110.3L102.3,110.3z"/>
		</g>
		<g>
			<path class="st0" d="M120.9,52.4c0,0-0.1,0-0.1,0c-2.3,0-4.1,1.8-4.1,4.1c0,2.3,1.8,4.1,4.1,4.1s4.1-1.8,4.1-4.1
				C124.9,54.3,123.1,52.5,120.9,52.4L120.9,52.4z"/>
		</g>
		<g>
			<path d="M131,72c0-1.7-0.1-3.5-0.2-5.2l-0.9-0.5l0.8-0.7c-0.4-3.5-1.1-6.9-2-10.1l-1-0.4l0.6-0.9c-1-3.3-2.4-6.5-4-9.5l-1-0.2
				l0.4-1c-1.7-3-3.6-5.9-5.7-8.6l-1,0l0.2-1c-2.2-2.6-4.7-5.1-7.3-7.3l-1,0.2l0-1c-2.7-2.2-5.5-4.1-8.6-5.7l-1,0.4l-0.2-1
				c-3-1.6-6.2-2.9-9.5-4l-0.9,0.6l-0.4-1c-3.3-1-6.6-1.6-10.1-2l-0.7,0.8l-0.5-0.9C75.5,13.1,73.7,13,72,13c-1.7,0-3.5,0.1-5.2,0.2
				l-0.5,0.9l-0.7-0.8c-3.5,0.4-6.9,1.1-10.1,2l-0.4,1l-0.9-0.6c-3.3,1-6.5,2.4-9.5,4l-0.2,1l-1-0.4c-3,1.7-5.9,3.6-8.6,5.7l0,1
				l-1-0.2c-2.6,2.2-5.1,4.7-7.3,7.3l0.2,1l-1,0c-2.2,2.7-4.1,5.5-5.7,8.6l0.4,1l-1,0.2c-1.6,3-2.9,6.2-4,9.5l0.6,0.9l-1,0.4
				c-1,3.3-1.6,6.6-2,10.1l0.8,0.7l-0.9,0.5C13.1,68.5,13,70.3,13,72c0,1.7,0.1,3.5,0.2,5.2l0.9,0.5l-0.8,0.7
				c0.4,3.5,1.1,6.9,2,10.1l1,0.4l-0.6,0.9c1,3.3,2.4,6.5,4,9.5l1,0.2l-0.4,1c1.7,3,3.6,5.9,5.7,8.6l1,0l-0.2,1
				c2.2,2.6,4.7,5.1,7.3,7.3l1-0.2l0,1c2.7,2.2,5.5,4.1,8.6,5.7l1-0.4l0.2,1c3,1.6,6.2,2.9,9.5,4l0.9-0.6l0.4,1
				c3.3,1,6.6,1.6,10.1,2l0.7-0.8l0.5,0.9c1.7,0.1,3.4,0.2,5.2,0.2c1.7,0,3.5-0.1,5.2-0.2l0.5-0.9l0.7,0.8c3.5-0.4,6.9-1.1,10.1-2
				l0.4-1l0.9,0.6c3.3-1,6.5-2.4,9.5-4l0.2-1l1,0.4c3-1.7,5.9-3.6,8.6-5.7l0-1l1,0.2c2.6-2.2,5.1-4.7,7.3-7.3l-0.2-1l1,0
				c2.2-2.7,4.1-5.5,5.7-8.6l-0.4-1l1-0.2c1.6-3,2.9-6.2,4-9.5l-0.6-0.9l1-0.4c1-3.3,1.6-6.6,2-10.1l-0.8-0.7l0.9-0.5
				C130.9,75.5,131,73.7,131,72L131,72z M71.8,15.1c0,0,0.1,0,0.1,0c2.2,0.1,4,1.9,4,4.1c0,2.3-1.8,4.1-4.1,4.1s-4.1-1.8-4.1-4.1
				S69.5,15,71.8,15.1L71.8,15.1z M22.8,60.5c-2.3,0-4.1-1.8-4.1-4.1s1.8-4.1,4.1-4.1c0,0,0.1,0,0.1,0c2.2,0.1,4,1.9,4,4.1
				C26.9,58.6,25,60.5,22.8,60.5L22.8,60.5z M41.3,118.4c-2.3,0-4.1-1.8-4.1-4.1c0-2.3,1.8-4.1,4.1-4.1c0,0,0.1,0,0.1,0
				c2.2,0.1,4,1.9,4,4.1C45.4,116.5,43.6,118.4,41.3,118.4L41.3,118.4z M102.2,118.6c-2.3,0-4.1-1.8-4.1-4.1c0-2.3,1.8-4.1,4.1-4.1
				c0,0,0.1,0,0.1,0c2.2,0.1,4,1.9,4,4.1C106.3,116.7,104.5,118.6,102.2,118.6L102.2,118.6z M71.7,116.8
				c-24.8,0-44.9-20.1-44.9-44.9s20.1-44.9,44.9-44.9s44.9,20.1,44.9,44.9S96.5,116.8,71.7,116.8z M120.8,60.7
				c-2.3,0-4.1-1.8-4.1-4.1c0-2.3,1.8-4.1,4.1-4.1c0,0,0.1,0,0.1,0c2.2,0.1,4,1.9,4,4.1C124.9,58.8,123.1,60.7,120.8,60.7
				L120.8,60.7z"/>
		</g>
	</g>
</g>
<g class="st1">
	<line class="st2" x1="94.9" y1="70.2" x2="71" y2="94.1"/>
	<line class="st2" x1="90.1" y1="44" x2="44.7" y2="89.3"/>
</g>
<g>
	<g>
		<rect x="36.3" y="36.5" class="st0" width="70.7" height="70.7"/>
	</g>
	<g>
		<path d="M71.7,98.4c-1.1,0-2.3-0.4-3.1-1.3c-1.7-1.7-1.7-4.5,0-6.2l22.1-22.1c1.7-1.7,4.5-1.7,6.2,0c1.7,1.7,1.7,4.5,0,6.2
			L74.8,97.1C73.9,97.9,72.8,98.4,71.7,98.4z"/>
	</g>
	<g>
		<path d="M47.4,94c-1.1,0-2.3-0.4-3.1-1.3c-1.7-1.7-1.7-4.5,0-6.2l42-42c1.7-1.7,4.5-1.7,6.2,0c1.7,1.7,1.7,4.5,0,6.2l-42,42
			C49.6,93.5,48.5,94,47.4,94z"/>
	</g>
</g>
</svg>
