<?xml version="1.0" encoding="UTF-8"?>
<svg id="uuid-b10a456c-9d21-4c36-9691-693090d91f59" data-name="Layer 1" xmlns="http://www.w3.org/2000/svg" xmlns:xlink="http://www.w3.org/1999/xlink" viewBox="0 0 256 256">
  <defs>
    <linearGradient id="uuid-2134a58d-c868-4e57-b191-faf32240769b" data-name="New Gradient Swatch 1" x1="69.74" y1="187.53" x2="236.33" y2="20.95" gradientUnits="userSpaceOnUse">
      <stop offset="0" stop-color="#2c5282"/>
      <stop offset=".25" stop-color="#4a7ba7"/>
      <stop offset=".5" stop-color="#7ba5c9"/>
      <stop offset=".75" stop-color="#b8d4e6"/>
      <stop offset="1" stop-color="#e8f4f8"/>
    </linearGradient>
    <linearGradient id="uuid-398ee5b0-982f-4f10-bb62-7898b5bb03e9" x1="75.07" y1="191.39" x2="101.67" y2="191.39" gradientTransform="translate(-1.13 .84) rotate(-.44)" gradientUnits="userSpaceOnUse">
      <stop offset="0" stop-color="#2c5282"/>
      <stop offset="1" stop-color="#4a7ba7"/>
    </linearGradient>
    <linearGradient id="uuid-c7180f36-cb9f-4ab5-b031-68f875d4493d" x1="56.81" y1="180.6" x2="98.34" y2="180.6" xlink:href="#uuid-398ee5b0-982f-4f10-bb62-7898b5bb03e9"/>
  </defs>
  <path d="m243.13,25.14l-47.77,48.57c-3.6,3.66-9.48,3.71-13.14.11h0c-3.66-3.6-3.71-9.48-.11-13.14l47.77-48.57c3.6-3.66,9.48-3.71,13.14-.11h0c3.66,3.6,3.71,9.48.11,13.14ZM94.91,105.19h0c-3.66-3.6-3.71-9.48-.11-13.14L172.96,12.59c3.6-3.66,9.48-3.71,13.14-.11h0c3.66,3.6,3.71,9.48.11,13.14l-78.16,79.47c-3.6,3.66-9.48,3.71-13.14.11Zm-35.39-34.53c10.39-10.51,20.78-21.01,40.08-40.62,3.6-3.66,9.49-3.72,13.15-.12h0c3.66,3.6,3.69,9.49.09,13.15-19.31,19.62-29.72,30.14-40.12,40.65-7.08,7.16-14.16,14.32-24.06,24.35-5.02,5.09-2.66,13.71,4.25,15.52l48.35,12.64c3.22.84,6.64-.1,8.97-2.47l45.83-46.59c3.6-3.66,9.48-3.71,13.14-.11h0c3.66,3.6,3.71,9.48.11,13.14l-45.83,46.59c-2.33,2.37-3.22,5.81-2.32,9.01l13.53,48.47c1.91,6.84,10.48,9.1,15.51,4.07l73.24-73.15c3.63-3.63,9.51-3.62,13.14,0h0c3.63,3.63,3.62,9.51,0,13.14l-95.72,95.6c-2.36,2.36-5.81,3.27-9.03,2.38l-88.84-24.48c-3.1-.85-5.54-3.25-6.45-6.34L10.58,127.08c-.95-3.23-.07-6.73,2.29-9.13h0c23.61-24.01,35.13-35.65,46.65-47.29h0Zm56.99,137.58l-13.26-47.52c-.89-3.18-3.4-5.65-6.6-6.49l-47.73-12.48c-6.99-1.83-13.3,4.67-11.26,11.6l13.79,46.99c.91,3.09,3.34,5.49,6.45,6.34l47.21,13.01c6.96,1.92,13.36-4.5,11.41-11.45Zm107.56-106.31l8.82-8.82c3.63-3.63,3.63-9.51,0-13.14h0c-3.63-3.63-9.51-3.63-13.14,0l-8.87,8.88-58.68,59.66c-3.6,3.66-3.55,9.54.11,13.14h0c3.66,3.6,9.54,3.55,13.14-.11l58.62-59.6h0Z" fill="url(#uuid-2134a58d-c868-4e57-b191-faf32240769b)" fill-rule="evenodd" stroke-width="0"/>
  <g>
    <path d="m80.46,204.92c-1.27,0-2.53-.48-3.51-1.44-1.97-1.93-1.99-5.1-.05-7.07l16.47-16.73c1.94-1.97,5.1-1.99,7.07-.05,1.97,1.93,1.99,5.1.05,7.07l-16.47,16.73c-.98.99-2.27,1.49-3.56,1.49Z" fill="url(#uuid-398ee5b0-982f-4f10-bb62-7898b5bb03e9)" stroke-width="0"/>
    <path d="m62.17,201.73c-1.27,0-2.53-.48-3.51-1.44-1.97-1.94-1.99-5.1-.05-7.07l31.3-31.78c1.93-1.97,5.1-1.99,7.07-.05s1.99,5.1.05,7.07l-31.3,31.78c-.98.99-2.27,1.49-3.56,1.49Z" fill="url(#uuid-c7180f36-cb9f-4ab5-b031-68f875d4493d)" stroke-width="0"/>
  </g>
</svg>